<?xml version="1.0" encoding="utf-8" standalone="no"?>
<!DOCTYPE svg PUBLIC "-//W3C//DTD SVG 1.1//EN"
  "http://www.w3.org/Graphics/SVG/1.1/DTD/svg11.dtd">
<!-- Created with matplotlib (http://matplotlib.org/) -->
<svg height="345pt" version="1.1" viewBox="0 0 460 345" width="460pt" xmlns="http://www.w3.org/2000/svg" xmlns:xlink="http://www.w3.org/1999/xlink">
 <defs>
  <style type="text/css">
*{stroke-linecap:butt;stroke-linejoin:round;}
  </style>
 </defs>
 <g id="figure_1">
  <g id="patch_1">
   <path d="M 0 345.6 
L 460.8 345.6 
L 460.8 0 
L 0 0 
z
" style="fill:#ffffff;"/>
  </g>
  <g id="axes_1">
   <g id="patch_2">
    <path d="M 57.6 307.584 
L 414.72 307.584 
L 414.72 41.472 
L 57.6 41.472 
z
" style="fill:#ffffff;"/>
   </g>
   <g id="matplotlib.axis_1">
    <g id="xtick_1">
     <g id="line2d_1">
      <defs>
       <path d="M 0 0 
L 0 3.5 
" id="m56272d96a1" style="stroke:#000000;stroke-width:0.8;"/>
      </defs>
      <g>
       <use style="stroke:#000000;stroke-width:0.8;" x="73.832727" xlink:href="#m56272d96a1" y="307.584"/>
      </g>
     </g>
     <g id="text_1">
      <!-- 0.0 -->
      <defs>
       <path d="M 31.78125 66.40625 
Q 24.171875 66.40625 20.328125 58.90625 
Q 16.5 51.421875 16.5 36.375 
Q 16.5 21.390625 20.328125 13.890625 
Q 24.171875 6.390625 31.78125 6.390625 
Q 39.453125 6.390625 43.28125 13.890625 
Q 47.125 21.390625 47.125 36.375 
Q 47.125 51.421875 43.28125 58.90625 
Q 39.453125 66.40625 31.78125 66.40625 
z
M 31.78125 74.21875 
Q 44.046875 74.21875 50.515625 64.515625 
Q 56.984375 54.828125 56.984375 36.375 
Q 56.984375 17.96875 50.515625 8.265625 
Q 44.046875 -1.421875 31.78125 -1.421875 
Q 19.53125 -1.421875 13.0625 8.265625 
Q 6.59375 17.96875 6.59375 36.375 
Q 6.59375 54.828125 13.0625 64.515625 
Q 19.53125 74.21875 31.78125 74.21875 
z
" id="DejaVuSans-30"/>
       <path d="M 10.6875 12.40625 
L 21 12.40625 
L 21 0 
L 10.6875 0 
z
" id="DejaVuSans-2e"/>
      </defs>
      <g transform="translate(65.881165 322.182437)scale(0.1 -0.1)">
       <use xlink:href="#DejaVuSans-30"/>
       <use x="63.623047" xlink:href="#DejaVuSans-2e"/>
       <use x="95.410156" xlink:href="#DejaVuSans-30"/>
      </g>
     </g>
    </g>
    <g id="xtick_2">
     <g id="line2d_2">
      <g>
       <use style="stroke:#000000;stroke-width:0.8;" x="138.763636" xlink:href="#m56272d96a1" y="307.584"/>
      </g>
     </g>
     <g id="text_2">
      <!-- 0.2 -->
      <defs>
       <path d="M 19.1875 8.296875 
L 53.609375 8.296875 
L 53.609375 0 
L 7.328125 0 
L 7.328125 8.296875 
Q 12.9375 14.109375 22.625 23.890625 
Q 32.328125 33.6875 34.8125 36.53125 
Q 39.546875 41.84375 41.421875 45.53125 
Q 43.3125 49.21875 43.3125 52.78125 
Q 43.3125 58.59375 39.234375 62.25 
Q 35.15625 65.921875 28.609375 65.921875 
Q 23.96875 65.921875 18.8125 64.3125 
Q 13.671875 62.703125 7.8125 59.421875 
L 7.8125 69.390625 
Q 13.765625 71.78125 18.9375 73 
Q 24.125 74.21875 28.421875 74.21875 
Q 39.75 74.21875 46.484375 68.546875 
Q 53.21875 62.890625 53.21875 53.421875 
Q 53.21875 48.921875 51.53125 44.890625 
Q 49.859375 40.875 45.40625 35.40625 
Q 44.1875 33.984375 37.640625 27.21875 
Q 31.109375 20.453125 19.1875 8.296875 
z
" id="DejaVuSans-32"/>
      </defs>
      <g transform="translate(130.812074 322.182437)scale(0.1 -0.1)">
       <use xlink:href="#DejaVuSans-30"/>
       <use x="63.623047" xlink:href="#DejaVuSans-2e"/>
       <use x="95.410156" xlink:href="#DejaVuSans-32"/>
      </g>
     </g>
    </g>
    <g id="xtick_3">
     <g id="line2d_3">
      <g>
       <use style="stroke:#000000;stroke-width:0.8;" x="203.694545" xlink:href="#m56272d96a1" y="307.584"/>
      </g>
     </g>
     <g id="text_3">
      <!-- 0.4 -->
      <defs>
       <path d="M 37.796875 64.3125 
L 12.890625 25.390625 
L 37.796875 25.390625 
z
M 35.203125 72.90625 
L 47.609375 72.90625 
L 47.609375 25.390625 
L 58.015625 25.390625 
L 58.015625 17.1875 
L 47.609375 17.1875 
L 47.609375 0 
L 37.796875 0 
L 37.796875 17.1875 
L 4.890625 17.1875 
L 4.890625 26.703125 
z
" id="DejaVuSans-34"/>
      </defs>
      <g transform="translate(195.742983 322.182437)scale(0.1 -0.1)">
       <use xlink:href="#DejaVuSans-30"/>
       <use x="63.623047" xlink:href="#DejaVuSans-2e"/>
       <use x="95.410156" xlink:href="#DejaVuSans-34"/>
      </g>
     </g>
    </g>
    <g id="xtick_4">
     <g id="line2d_4">
      <g>
       <use style="stroke:#000000;stroke-width:0.8;" x="268.625455" xlink:href="#m56272d96a1" y="307.584"/>
      </g>
     </g>
     <g id="text_4">
      <!-- 0.6 -->
      <defs>
       <path d="M 33.015625 40.375 
Q 26.375 40.375 22.484375 35.828125 
Q 18.609375 31.296875 18.609375 23.390625 
Q 18.609375 15.53125 22.484375 10.953125 
Q 26.375 6.390625 33.015625 6.390625 
Q 39.65625 6.390625 43.53125 10.953125 
Q 47.40625 15.53125 47.40625 23.390625 
Q 47.40625 31.296875 43.53125 35.828125 
Q 39.65625 40.375 33.015625 40.375 
z
M 52.59375 71.296875 
L 52.59375 62.3125 
Q 48.875 64.0625 45.09375 64.984375 
Q 41.3125 65.921875 37.59375 65.921875 
Q 27.828125 65.921875 22.671875 59.328125 
Q 17.53125 52.734375 16.796875 39.40625 
Q 19.671875 43.65625 24.015625 45.921875 
Q 28.375 48.1875 33.59375 48.1875 
Q 44.578125 48.1875 50.953125 41.515625 
Q 57.328125 34.859375 57.328125 23.390625 
Q 57.328125 12.15625 50.6875 5.359375 
Q 44.046875 -1.421875 33.015625 -1.421875 
Q 20.359375 -1.421875 13.671875 8.265625 
Q 6.984375 17.96875 6.984375 36.375 
Q 6.984375 53.65625 15.1875 63.9375 
Q 23.390625 74.21875 37.203125 74.21875 
Q 40.921875 74.21875 44.703125 73.484375 
Q 48.484375 72.75 52.59375 71.296875 
z
" id="DejaVuSans-36"/>
      </defs>
      <g transform="translate(260.673892 322.182437)scale(0.1 -0.1)">
       <use xlink:href="#DejaVuSans-30"/>
       <use x="63.623047" xlink:href="#DejaVuSans-2e"/>
       <use x="95.410156" xlink:href="#DejaVuSans-36"/>
      </g>
     </g>
    </g>
    <g id="xtick_5">
     <g id="line2d_5">
      <g>
       <use style="stroke:#000000;stroke-width:0.8;" x="333.556364" xlink:href="#m56272d96a1" y="307.584"/>
      </g>
     </g>
     <g id="text_5">
      <!-- 0.8 -->
      <defs>
       <path d="M 31.78125 34.625 
Q 24.75 34.625 20.71875 30.859375 
Q 16.703125 27.09375 16.703125 20.515625 
Q 16.703125 13.921875 20.71875 10.15625 
Q 24.75 6.390625 31.78125 6.390625 
Q 38.8125 6.390625 42.859375 10.171875 
Q 46.921875 13.96875 46.921875 20.515625 
Q 46.921875 27.09375 42.890625 30.859375 
Q 38.875 34.625 31.78125 34.625 
z
M 21.921875 38.8125 
Q 15.578125 40.375 12.03125 44.71875 
Q 8.5 49.078125 8.5 55.328125 
Q 8.5 64.0625 14.71875 69.140625 
Q 20.953125 74.21875 31.78125 74.21875 
Q 42.671875 74.21875 48.875 69.140625 
Q 55.078125 64.0625 55.078125 55.328125 
Q 55.078125 49.078125 51.53125 44.71875 
Q 48 40.375 41.703125 38.8125 
Q 48.828125 37.15625 52.796875 32.3125 
Q 56.78125 27.484375 56.78125 20.515625 
Q 56.78125 9.90625 50.3125 4.234375 
Q 43.84375 -1.421875 31.78125 -1.421875 
Q 19.734375 -1.421875 13.25 4.234375 
Q 6.78125 9.90625 6.78125 20.515625 
Q 6.78125 27.484375 10.78125 32.3125 
Q 14.796875 37.15625 21.921875 38.8125 
z
M 18.3125 54.390625 
Q 18.3125 48.734375 21.84375 45.5625 
Q 25.390625 42.390625 31.78125 42.390625 
Q 38.140625 42.390625 41.71875 45.5625 
Q 45.3125 48.734375 45.3125 54.390625 
Q 45.3125 60.0625 41.71875 63.234375 
Q 38.140625 66.40625 31.78125 66.40625 
Q 25.390625 66.40625 21.84375 63.234375 
Q 18.3125 60.0625 18.3125 54.390625 
z
" id="DejaVuSans-38"/>
      </defs>
      <g transform="translate(325.604801 322.182437)scale(0.1 -0.1)">
       <use xlink:href="#DejaVuSans-30"/>
       <use x="63.623047" xlink:href="#DejaVuSans-2e"/>
       <use x="95.410156" xlink:href="#DejaVuSans-38"/>
      </g>
     </g>
    </g>
    <g id="xtick_6">
     <g id="line2d_6">
      <g>
       <use style="stroke:#000000;stroke-width:0.8;" x="398.487273" xlink:href="#m56272d96a1" y="307.584"/>
      </g>
     </g>
     <g id="text_6">
      <!-- 1.0 -->
      <defs>
       <path d="M 12.40625 8.296875 
L 28.515625 8.296875 
L 28.515625 63.921875 
L 10.984375 60.40625 
L 10.984375 69.390625 
L 28.421875 72.90625 
L 38.28125 72.90625 
L 38.28125 8.296875 
L 54.390625 8.296875 
L 54.390625 0 
L 12.40625 0 
z
" id="DejaVuSans-31"/>
      </defs>
      <g transform="translate(390.53571 322.182437)scale(0.1 -0.1)">
       <use xlink:href="#DejaVuSans-31"/>
       <use x="63.623047" xlink:href="#DejaVuSans-2e"/>
       <use x="95.410156" xlink:href="#DejaVuSans-30"/>
      </g>
     </g>
    </g>
    <g id="text_7">
     <!-- False Positive Rate -->
     <defs>
      <path d="M 9.8125 72.90625 
L 51.703125 72.90625 
L 51.703125 64.59375 
L 19.671875 64.59375 
L 19.671875 43.109375 
L 48.578125 43.109375 
L 48.578125 34.8125 
L 19.671875 34.8125 
L 19.671875 0 
L 9.8125 0 
z
" id="DejaVuSans-46"/>
      <path d="M 34.28125 27.484375 
Q 23.390625 27.484375 19.1875 25 
Q 14.984375 22.515625 14.984375 16.5 
Q 14.984375 11.71875 18.140625 8.90625 
Q 21.296875 6.109375 26.703125 6.109375 
Q 34.1875 6.109375 38.703125 11.40625 
Q 43.21875 16.703125 43.21875 25.484375 
L 43.21875 27.484375 
z
M 52.203125 31.203125 
L 52.203125 0 
L 43.21875 0 
L 43.21875 8.296875 
Q 40.140625 3.328125 35.546875 0.953125 
Q 30.953125 -1.421875 24.3125 -1.421875 
Q 15.921875 -1.421875 10.953125 3.296875 
Q 6 8.015625 6 15.921875 
Q 6 25.140625 12.171875 29.828125 
Q 18.359375 34.515625 30.609375 34.515625 
L 43.21875 34.515625 
L 43.21875 35.40625 
Q 43.21875 41.609375 39.140625 45 
Q 35.0625 48.390625 27.6875 48.390625 
Q 23 48.390625 18.546875 47.265625 
Q 14.109375 46.140625 10.015625 43.890625 
L 10.015625 52.203125 
Q 14.9375 54.109375 19.578125 55.046875 
Q 24.21875 56 28.609375 56 
Q 40.484375 56 46.34375 49.84375 
Q 52.203125 43.703125 52.203125 31.203125 
z
" id="DejaVuSans-61"/>
      <path d="M 9.421875 75.984375 
L 18.40625 75.984375 
L 18.40625 0 
L 9.421875 0 
z
" id="DejaVuSans-6c"/>
      <path d="M 44.28125 53.078125 
L 44.28125 44.578125 
Q 40.484375 46.53125 36.375 47.5 
Q 32.28125 48.484375 27.875 48.484375 
Q 21.1875 48.484375 17.84375 46.4375 
Q 14.5 44.390625 14.5 40.28125 
Q 14.5 37.15625 16.890625 35.375 
Q 19.28125 33.59375 26.515625 31.984375 
L 29.59375 31.296875 
Q 39.15625 29.25 43.1875 25.515625 
Q 47.21875 21.78125 47.21875 15.09375 
Q 47.21875 7.46875 41.1875 3.015625 
Q 35.15625 -1.421875 24.609375 -1.421875 
Q 20.21875 -1.421875 15.453125 -0.5625 
Q 10.6875 0.296875 5.421875 2 
L 5.421875 11.28125 
Q 10.40625 8.6875 15.234375 7.390625 
Q 20.0625 6.109375 24.8125 6.109375 
Q 31.15625 6.109375 34.5625 8.28125 
Q 37.984375 10.453125 37.984375 14.40625 
Q 37.984375 18.0625 35.515625 20.015625 
Q 33.0625 21.96875 24.703125 23.78125 
L 21.578125 24.515625 
Q 13.234375 26.265625 9.515625 29.90625 
Q 5.8125 33.546875 5.8125 39.890625 
Q 5.8125 47.609375 11.28125 51.796875 
Q 16.75 56 26.8125 56 
Q 31.78125 56 36.171875 55.265625 
Q 40.578125 54.546875 44.28125 53.078125 
z
" id="DejaVuSans-73"/>
      <path d="M 56.203125 29.59375 
L 56.203125 25.203125 
L 14.890625 25.203125 
Q 15.484375 15.921875 20.484375 11.0625 
Q 25.484375 6.203125 34.421875 6.203125 
Q 39.59375 6.203125 44.453125 7.46875 
Q 49.3125 8.734375 54.109375 11.28125 
L 54.109375 2.78125 
Q 49.265625 0.734375 44.1875 -0.34375 
Q 39.109375 -1.421875 33.890625 -1.421875 
Q 20.796875 -1.421875 13.15625 6.1875 
Q 5.515625 13.8125 5.515625 26.8125 
Q 5.515625 40.234375 12.765625 48.109375 
Q 20.015625 56 32.328125 56 
Q 43.359375 56 49.78125 48.890625 
Q 56.203125 41.796875 56.203125 29.59375 
z
M 47.21875 32.234375 
Q 47.125 39.59375 43.09375 43.984375 
Q 39.0625 48.390625 32.421875 48.390625 
Q 24.90625 48.390625 20.390625 44.140625 
Q 15.875 39.890625 15.1875 32.171875 
z
" id="DejaVuSans-65"/>
      <path id="DejaVuSans-20"/>
      <path d="M 19.671875 64.796875 
L 19.671875 37.40625 
L 32.078125 37.40625 
Q 38.96875 37.40625 42.71875 40.96875 
Q 46.484375 44.53125 46.484375 51.125 
Q 46.484375 57.671875 42.71875 61.234375 
Q 38.96875 64.796875 32.078125 64.796875 
z
M 9.8125 72.90625 
L 32.078125 72.90625 
Q 44.34375 72.90625 50.609375 67.359375 
Q 56.890625 61.8125 56.890625 51.125 
Q 56.890625 40.328125 50.609375 34.8125 
Q 44.34375 29.296875 32.078125 29.296875 
L 19.671875 29.296875 
L 19.671875 0 
L 9.8125 0 
z
" id="DejaVuSans-50"/>
      <path d="M 30.609375 48.390625 
Q 23.390625 48.390625 19.1875 42.75 
Q 14.984375 37.109375 14.984375 27.296875 
Q 14.984375 17.484375 19.15625 11.84375 
Q 23.34375 6.203125 30.609375 6.203125 
Q 37.796875 6.203125 41.984375 11.859375 
Q 46.1875 17.53125 46.1875 27.296875 
Q 46.1875 37.015625 41.984375 42.703125 
Q 37.796875 48.390625 30.609375 48.390625 
z
M 30.609375 56 
Q 42.328125 56 49.015625 48.375 
Q 55.71875 40.765625 55.71875 27.296875 
Q 55.71875 13.875 49.015625 6.21875 
Q 42.328125 -1.421875 30.609375 -1.421875 
Q 18.84375 -1.421875 12.171875 6.21875 
Q 5.515625 13.875 5.515625 27.296875 
Q 5.515625 40.765625 12.171875 48.375 
Q 18.84375 56 30.609375 56 
z
" id="DejaVuSans-6f"/>
      <path d="M 9.421875 54.6875 
L 18.40625 54.6875 
L 18.40625 0 
L 9.421875 0 
z
M 9.421875 75.984375 
L 18.40625 75.984375 
L 18.40625 64.59375 
L 9.421875 64.59375 
z
" id="DejaVuSans-69"/>
      <path d="M 18.3125 70.21875 
L 18.3125 54.6875 
L 36.8125 54.6875 
L 36.8125 47.703125 
L 18.3125 47.703125 
L 18.3125 18.015625 
Q 18.3125 11.328125 20.140625 9.421875 
Q 21.96875 7.515625 27.59375 7.515625 
L 36.8125 7.515625 
L 36.8125 0 
L 27.59375 0 
Q 17.1875 0 13.234375 3.875 
Q 9.28125 7.765625 9.28125 18.015625 
L 9.28125 47.703125 
L 2.6875 47.703125 
L 2.6875 54.6875 
L 9.28125 54.6875 
L 9.28125 70.21875 
z
" id="DejaVuSans-74"/>
      <path d="M 2.984375 54.6875 
L 12.5 54.6875 
L 29.59375 8.796875 
L 46.6875 54.6875 
L 56.203125 54.6875 
L 35.6875 0 
L 23.484375 0 
z
" id="DejaVuSans-76"/>
      <path d="M 44.390625 34.1875 
Q 47.5625 33.109375 50.5625 29.59375 
Q 53.5625 26.078125 56.59375 19.921875 
L 66.609375 0 
L 56 0 
L 46.6875 18.703125 
Q 43.0625 26.03125 39.671875 28.421875 
Q 36.28125 30.8125 30.421875 30.8125 
L 19.671875 30.8125 
L 19.671875 0 
L 9.8125 0 
L 9.8125 72.90625 
L 32.078125 72.90625 
Q 44.578125 72.90625 50.734375 67.671875 
Q 56.890625 62.453125 56.890625 51.90625 
Q 56.890625 45.015625 53.6875 40.46875 
Q 50.484375 35.9375 44.390625 34.1875 
z
M 19.671875 64.796875 
L 19.671875 38.921875 
L 32.078125 38.921875 
Q 39.203125 38.921875 42.84375 42.21875 
Q 46.484375 45.515625 46.484375 51.90625 
Q 46.484375 58.296875 42.84375 61.546875 
Q 39.203125 64.796875 32.078125 64.796875 
z
" id="DejaVuSans-52"/>
     </defs>
     <g transform="translate(174.792891 338.140094)scale(0.13 -0.13)">
      <use xlink:href="#DejaVuSans-46"/>
      <use x="57.378906" xlink:href="#DejaVuSans-61"/>
      <use x="118.658203" xlink:href="#DejaVuSans-6c"/>
      <use x="146.441406" xlink:href="#DejaVuSans-73"/>
      <use x="198.541016" xlink:href="#DejaVuSans-65"/>
      <use x="260.064453" xlink:href="#DejaVuSans-20"/>
      <use x="291.851562" xlink:href="#DejaVuSans-50"/>
      <use x="352.107422" xlink:href="#DejaVuSans-6f"/>
      <use x="413.289062" xlink:href="#DejaVuSans-73"/>
      <use x="465.388672" xlink:href="#DejaVuSans-69"/>
      <use x="493.171875" xlink:href="#DejaVuSans-74"/>
      <use x="532.380859" xlink:href="#DejaVuSans-69"/>
      <use x="560.164062" xlink:href="#DejaVuSans-76"/>
      <use x="619.34375" xlink:href="#DejaVuSans-65"/>
      <use x="680.867188" xlink:href="#DejaVuSans-20"/>
      <use x="712.654297" xlink:href="#DejaVuSans-52"/>
      <use x="782.105469" xlink:href="#DejaVuSans-61"/>
      <use x="843.384766" xlink:href="#DejaVuSans-74"/>
      <use x="882.59375" xlink:href="#DejaVuSans-65"/>
     </g>
    </g>
   </g>
   <g id="matplotlib.axis_2">
    <g id="ytick_1">
     <g id="line2d_7">
      <defs>
       <path d="M 0 0 
L -3.5 0 
" id="mab78b92f49" style="stroke:#000000;stroke-width:0.8;"/>
      </defs>
      <g>
       <use style="stroke:#000000;stroke-width:0.8;" x="57.6" xlink:href="#mab78b92f49" y="295.488"/>
      </g>
     </g>
     <g id="text_8">
      <!-- 0.0 -->
      <g transform="translate(34.696875 299.287219)scale(0.1 -0.1)">
       <use xlink:href="#DejaVuSans-30"/>
       <use x="63.623047" xlink:href="#DejaVuSans-2e"/>
       <use x="95.410156" xlink:href="#DejaVuSans-30"/>
      </g>
     </g>
    </g>
    <g id="ytick_2">
     <g id="line2d_8">
      <g>
       <use style="stroke:#000000;stroke-width:0.8;" x="57.6" xlink:href="#mab78b92f49" y="247.104"/>
      </g>
     </g>
     <g id="text_9">
      <!-- 0.2 -->
      <g transform="translate(34.696875 250.903219)scale(0.1 -0.1)">
       <use xlink:href="#DejaVuSans-30"/>
       <use x="63.623047" xlink:href="#DejaVuSans-2e"/>
       <use x="95.410156" xlink:href="#DejaVuSans-32"/>
      </g>
     </g>
    </g>
    <g id="ytick_3">
     <g id="line2d_9">
      <g>
       <use style="stroke:#000000;stroke-width:0.8;" x="57.6" xlink:href="#mab78b92f49" y="198.72"/>
      </g>
     </g>
     <g id="text_10">
      <!-- 0.4 -->
      <g transform="translate(34.696875 202.519219)scale(0.1 -0.1)">
       <use xlink:href="#DejaVuSans-30"/>
       <use x="63.623047" xlink:href="#DejaVuSans-2e"/>
       <use x="95.410156" xlink:href="#DejaVuSans-34"/>
      </g>
     </g>
    </g>
    <g id="ytick_4">
     <g id="line2d_10">
      <g>
       <use style="stroke:#000000;stroke-width:0.8;" x="57.6" xlink:href="#mab78b92f49" y="150.336"/>
      </g>
     </g>
     <g id="text_11">
      <!-- 0.6 -->
      <g transform="translate(34.696875 154.135219)scale(0.1 -0.1)">
       <use xlink:href="#DejaVuSans-30"/>
       <use x="63.623047" xlink:href="#DejaVuSans-2e"/>
       <use x="95.410156" xlink:href="#DejaVuSans-36"/>
      </g>
     </g>
    </g>
    <g id="ytick_5">
     <g id="line2d_11">
      <g>
       <use style="stroke:#000000;stroke-width:0.8;" x="57.6" xlink:href="#mab78b92f49" y="101.952"/>
      </g>
     </g>
     <g id="text_12">
      <!-- 0.8 -->
      <g transform="translate(34.696875 105.751219)scale(0.1 -0.1)">
       <use xlink:href="#DejaVuSans-30"/>
       <use x="63.623047" xlink:href="#DejaVuSans-2e"/>
       <use x="95.410156" xlink:href="#DejaVuSans-38"/>
      </g>
     </g>
    </g>
    <g id="ytick_6">
     <g id="line2d_12">
      <g>
       <use style="stroke:#000000;stroke-width:0.8;" x="57.6" xlink:href="#mab78b92f49" y="53.568"/>
      </g>
     </g>
     <g id="text_13">
      <!-- 1.0 -->
      <g transform="translate(34.696875 57.367219)scale(0.1 -0.1)">
       <use xlink:href="#DejaVuSans-31"/>
       <use x="63.623047" xlink:href="#DejaVuSans-2e"/>
       <use x="95.410156" xlink:href="#DejaVuSans-30"/>
      </g>
     </g>
    </g>
    <g id="text_14">
     <!-- True Positive Rate -->
     <defs>
      <path d="M -0.296875 72.90625 
L 61.375 72.90625 
L 61.375 64.59375 
L 35.5 64.59375 
L 35.5 0 
L 25.59375 0 
L 25.59375 64.59375 
L -0.296875 64.59375 
z
" id="DejaVuSans-54"/>
      <path d="M 41.109375 46.296875 
Q 39.59375 47.171875 37.8125 47.578125 
Q 36.03125 48 33.890625 48 
Q 26.265625 48 22.1875 43.046875 
Q 18.109375 38.09375 18.109375 28.8125 
L 18.109375 0 
L 9.078125 0 
L 9.078125 54.6875 
L 18.109375 54.6875 
L 18.109375 46.1875 
Q 20.953125 51.171875 25.484375 53.578125 
Q 30.03125 56 36.53125 56 
Q 37.453125 56 38.578125 55.875 
Q 39.703125 55.765625 41.0625 55.515625 
z
" id="DejaVuSans-72"/>
      <path d="M 8.5 21.578125 
L 8.5 54.6875 
L 17.484375 54.6875 
L 17.484375 21.921875 
Q 17.484375 14.15625 20.5 10.265625 
Q 23.53125 6.390625 29.59375 6.390625 
Q 36.859375 6.390625 41.078125 11.03125 
Q 45.3125 15.671875 45.3125 23.6875 
L 45.3125 54.6875 
L 54.296875 54.6875 
L 54.296875 0 
L 45.3125 0 
L 45.3125 8.40625 
Q 42.046875 3.421875 37.71875 1 
Q 33.40625 -1.421875 27.6875 -1.421875 
Q 18.265625 -1.421875 13.375 4.4375 
Q 8.5 10.296875 8.5 21.578125 
z
M 31.109375 56 
z
" id="DejaVuSans-75"/>
     </defs>
     <g transform="translate(27.993281 233.737922)rotate(-90)scale(0.13 -0.13)">
      <use xlink:href="#DejaVuSans-54"/>
      <use x="60.865234" xlink:href="#DejaVuSans-72"/>
      <use x="101.978516" xlink:href="#DejaVuSans-75"/>
      <use x="165.357422" xlink:href="#DejaVuSans-65"/>
      <use x="226.880859" xlink:href="#DejaVuSans-20"/>
      <use x="258.667969" xlink:href="#DejaVuSans-50"/>
      <use x="318.923828" xlink:href="#DejaVuSans-6f"/>
      <use x="380.105469" xlink:href="#DejaVuSans-73"/>
      <use x="432.205078" xlink:href="#DejaVuSans-69"/>
      <use x="459.988281" xlink:href="#DejaVuSans-74"/>
      <use x="499.197266" xlink:href="#DejaVuSans-69"/>
      <use x="526.980469" xlink:href="#DejaVuSans-76"/>
      <use x="586.160156" xlink:href="#DejaVuSans-65"/>
      <use x="647.683594" xlink:href="#DejaVuSans-20"/>
      <use x="679.470703" xlink:href="#DejaVuSans-52"/>
      <use x="748.921875" xlink:href="#DejaVuSans-61"/>
      <use x="810.201172" xlink:href="#DejaVuSans-74"/>
      <use x="849.410156" xlink:href="#DejaVuSans-65"/>
     </g>
    </g>
   </g>
   <g id="line2d_13">
    <path clip-path="url(#paf8cacc2cd)" d="M 73.832727 295.488 
L 73.832727 295.488 
L 125.547611 77.117735 
L 127.702397 77.117735 
L 127.702397 76.582513 
L 131.293709 76.582513 
L 132.730233 76.582513 
L 138.476331 76.582513 
L 138.476331 76.047292 
L 140.631118 76.047292 
L 140.631118 75.512071 
L 146.377216 75.512071 
L 147.813741 75.512071 
L 151.405052 75.512071 
L 151.405052 74.441628 
L 153.559839 74.441628 
L 153.559839 73.906407 
L 154.278101 73.906407 
L 154.278101 73.371186 
L 155.714626 73.371186 
L 157.15115 73.371186 
L 162.178986 73.371186 
L 162.178986 72.300743 
L 172.234658 72.300743 
L 173.671183 72.300743 
L 181.572068 72.300743 
L 183.726854 72.300743 
L 190.191215 72.300743 
L 191.627739 72.300743 
L 203.119936 72.300743 
L 204.55646 72.300743 
L 208.147772 72.300743 
L 209.584296 72.300743 
L 231.850426 72.300743 
L 231.850426 71.765522 
L 241.187836 71.765522 
L 242.62436 71.765522 
L 245.497409 71.765522 
L 246.933934 71.765522 
L 252.680032 71.765522 
L 254.834819 71.765522 
L 256.271344 71.765522 
L 257.707868 71.765522 
L 285.720097 71.765522 
L 286.438359 71.765522 
L 287.874883 71.765522 
L 288.593146 71.765522 
L 290.02967 71.765522 
L 292.184457 71.765522 
L 292.184457 71.230301 
L 299.36708 71.230301 
L 301.521866 71.230301 
L 301.521866 70.69508 
L 304.394916 70.69508 
L 305.83144 70.69508 
L 309.422751 70.69508 
L 309.422751 69.624637 
L 311.577538 69.624637 
L 311.577538 68.554195 
L 315.16885 68.554195 
L 315.16885 68.018973 
L 315.887112 68.018973 
L 315.887112 66.948531 
L 319.478423 66.948531 
L 319.478423 64.807646 
L 322.351472 64.807646 
L 322.351472 63.201982 
L 325.224521 63.201982 
L 325.224521 62.666761 
L 325.942784 62.666761 
L 325.942784 62.13154 
L 330.252357 62.13154 
L 330.252357 61.061097 
L 331.688882 61.061097 
L 331.688882 60.525876 
L 337.43498 60.525876 
L 337.43498 59.990655 
L 338.871504 59.990655 
L 338.871504 59.455434 
L 341.744553 59.455434 
L 341.744553 58.920212 
L 347.490652 58.920212 
L 347.490652 58.384991 
L 348.927176 58.384991 
L 348.927176 57.84977 
L 354.673274 57.84977 
L 354.673274 57.314549 
L 361.137635 57.314549 
L 361.137635 56.779327 
L 364.728946 56.779327 
L 364.728946 56.244106 
L 370.475044 56.244106 
L 370.475044 55.708885 
L 375.50288 55.708885 
L 376.939405 55.708885 
L 379.094191 55.708885 
L 380.530716 55.708885 
L 384.84029 55.708885 
L 384.84029 55.173664 
L 385.558552 55.173664 
L 385.558552 54.638442 
L 389.149863 54.638442 
L 389.149863 54.103221 
L 391.30465 54.103221 
L 398.487273 53.568 
" style="fill:none;opacity:0.8;stroke:#ff0000;stroke-linecap:square;stroke-width:1.5;"/>
   </g>
   <g id="line2d_14">
    <path clip-path="url(#paf8cacc2cd)" d="M 73.832727 295.488 
L 73.832727 295.488 
L 121.956299 78.723398 
L 121.956299 78.188177 
L 126.265873 78.188177 
L 126.265873 77.652956 
L 128.42066 77.652956 
L 129.857184 77.652956 
L 138.476331 77.652956 
L 138.476331 77.117735 
L 188.75469 77.117735 
L 188.75469 76.582513 
L 198.810362 76.582513 
L 200.246887 76.582513 
L 216.766919 76.582513 
L 218.203443 76.582513 
L 219.639968 76.582513 
L 221.794755 76.582513 
L 244.060885 76.582513 
L 244.060885 76.047292 
L 253.398294 76.047292 
L 254.834819 76.047292 
L 259.862655 76.047292 
L 261.299179 76.047292 
L 263.453966 76.047292 
L 266.327015 76.047292 
L 269.918327 76.047292 
L 272.073113 76.047292 
L 285.001834 76.047292 
L 286.438359 76.047292 
L 288.593146 76.047292 
L 298.648817 76.047292 
L 300.085342 76.047292 
L 301.521866 76.047292 
L 301.521866 75.512071 
L 302.240129 75.512071 
L 303.676653 75.512071 
L 305.83144 75.512071 
L 305.83144 74.97685 
L 309.422751 74.97685 
L 309.422751 74.441628 
L 310.141014 74.441628 
L 310.141014 73.906407 
L 313.732325 73.906407 
L 313.732325 73.371186 
L 315.16885 73.371186 
L 315.16885 72.835965 
L 322.351472 72.835965 
L 322.351472 72.300743 
L 326.661046 72.300743 
L 326.661046 71.230301 
L 327.379308 71.230301 
L 328.815833 71.230301 
L 328.815833 70.159858 
L 330.970619 70.159858 
L 330.970619 69.624637 
L 331.688882 69.624637 
L 331.688882 68.554195 
L 333.125406 68.554195 
L 333.125406 68.018973 
L 333.843669 68.018973 
L 333.843669 64.272425 
L 335.280193 64.272425 
L 335.280193 63.737204 
L 335.998455 63.737204 
L 335.998455 62.666761 
L 336.716718 62.666761 
L 338.153242 62.666761 
L 338.153242 62.13154 
L 347.490652 62.13154 
L 347.490652 61.596319 
L 348.208914 61.596319 
L 348.208914 61.061097 
L 348.927176 61.061097 
L 348.927176 60.525876 
L 349.645438 60.525876 
L 349.645438 59.990655 
L 353.955012 59.990655 
L 353.955012 59.455434 
L 358.982848 59.455434 
L 360.419372 59.455434 
L 364.010684 59.455434 
L 364.010684 58.920212 
L 365.447208 58.920212 
L 365.447208 58.384991 
L 370.475044 58.384991 
L 370.475044 57.84977 
L 371.193307 57.84977 
L 372.629831 57.84977 
L 372.629831 57.314549 
L 375.50288 57.314549 
L 375.50288 56.779327 
L 385.558552 56.779327 
L 385.558552 56.244106 
L 386.276814 56.244106 
L 386.276814 55.708885 
L 389.868126 55.708885 
L 389.868126 55.173664 
L 391.30465 55.173664 
L 398.487273 53.568 
" style="fill:none;opacity:0.8;stroke:#ff0000;stroke-linecap:square;stroke-width:1.5;"/>
   </g>
   <g id="line2d_15">
    <path clip-path="url(#paf8cacc2cd)" d="M 73.832727 295.488 
L 73.832727 295.488 
L 116.210201 73.906407 
L 117.646726 73.906407 
L 119.08325 73.906407 
L 119.08325 73.371186 
L 119.801512 73.371186 
L 119.801512 72.835965 
L 120.519775 72.835965 
L 120.519775 72.300743 
L 125.547611 72.300743 
L 126.984135 72.300743 
L 128.42066 72.300743 
L 128.42066 71.765522 
L 142.067643 71.765522 
L 142.067643 71.230301 
L 144.22243 71.230301 
L 145.658954 71.230301 
L 164.333773 71.230301 
L 165.770298 71.230301 
L 170.079871 71.230301 
L 171.516396 71.230301 
L 182.29033 71.230301 
L 183.726854 71.230301 
L 185.163379 71.230301 
L 185.163379 70.69508 
L 193.782526 70.69508 
L 197.373837 70.69508 
L 214.612132 70.69508 
L 217.485181 70.69508 
L 229.69564 70.69508 
L 231.132164 70.69508 
L 243.342623 70.69508 
L 243.342623 70.159858 
L 254.834819 70.159858 
L 256.271344 70.159858 
L 257.707868 70.159858 
L 259.862655 70.159858 
L 260.580917 70.159858 
L 263.453966 70.159858 
L 267.045278 70.159858 
L 283.56531 70.159858 
L 291.466195 70.159858 
L 291.466195 69.624637 
L 293.620981 69.624637 
L 295.057506 69.624637 
L 296.494031 69.624637 
L 302.958391 69.624637 
L 302.958391 68.554195 
L 303.676653 68.554195 
L 303.676653 68.018973 
L 305.83144 68.018973 
L 305.83144 67.483752 
L 307.267965 67.483752 
L 307.267965 66.948531 
L 311.577538 66.948531 
L 311.577538 66.41331 
L 316.605374 66.41331 
L 316.605374 65.342867 
L 318.760161 65.342867 
L 318.760161 64.272425 
L 319.478423 64.272425 
L 319.478423 63.737204 
L 322.351472 63.737204 
L 322.351472 63.201982 
L 328.815833 63.201982 
L 328.815833 62.666761 
L 333.125406 62.666761 
L 333.125406 62.13154 
L 333.843669 62.13154 
L 333.843669 61.596319 
L 335.280193 61.596319 
L 335.280193 61.061097 
L 340.308029 61.061097 
L 340.308029 59.990655 
L 346.054127 59.990655 
L 346.054127 59.455434 
L 351.800225 59.455434 
L 353.23675 59.455434 
L 353.23675 58.920212 
L 355.391537 58.920212 
L 356.109799 58.920212 
L 356.109799 58.384991 
L 358.264586 58.384991 
L 358.264586 57.84977 
L 369.756782 57.84977 
L 369.756782 57.314549 
L 374.066356 57.314549 
L 374.066356 56.779327 
L 374.784618 56.779327 
L 374.784618 55.173664 
L 386.276814 55.173664 
L 386.276814 54.638442 
L 388.431601 54.638442 
L 388.431601 54.103221 
L 398.487273 53.568 
" style="fill:none;opacity:0.8;stroke:#ff0000;stroke-linecap:square;stroke-width:1.5;"/>
   </g>
   <g id="line2d_16">
    <path clip-path="url(#paf8cacc2cd)" d="M 73.832727 295.488 
L 73.832727 295.488 
L 125.547611 79.258619 
L 125.547611 78.723398 
L 129.138922 78.723398 
L 129.138922 78.188177 
L 132.011971 78.188177 
L 132.011971 77.652956 
L 137.758069 77.652956 
L 139.194594 77.652956 
L 139.912856 77.652956 
L 141.349381 77.652956 
L 151.405052 77.652956 
L 151.405052 76.582513 
L 168.643347 76.582513 
L 168.643347 76.047292 
L 177.980756 76.047292 
L 177.980756 75.512071 
L 205.274722 75.512071 
L 207.429509 75.512071 
L 226.822591 75.512071 
L 226.822591 74.97685 
L 232.568689 74.97685 
L 234.005213 74.97685 
L 236.878262 74.97685 
L 236.878262 74.441628 
L 237.596525 74.441628 
L 239.033049 74.441628 
L 250.525245 74.441628 
L 253.398294 74.441628 
L 254.834819 74.441628 
L 256.271344 74.441628 
L 272.073113 74.441628 
L 274.2279 74.441628 
L 278.537474 74.441628 
L 278.537474 73.906407 
L 279.255736 73.906407 
L 280.692261 73.906407 
L 281.410523 73.906407 
L 281.410523 73.371186 
L 290.747932 73.371186 
L 290.747932 72.835965 
L 300.803604 72.835965 
L 300.803604 72.300743 
L 306.549702 72.300743 
L 306.549702 71.230301 
L 308.704489 71.230301 
L 308.704489 69.089416 
L 309.422751 69.089416 
L 309.422751 68.554195 
L 310.141014 68.554195 
L 310.141014 67.483752 
L 311.577538 67.483752 
L 311.577538 64.272425 
L 313.732325 64.272425 
L 313.732325 63.737204 
L 315.16885 63.737204 
L 315.16885 63.201982 
L 320.196685 63.201982 
L 320.196685 62.666761 
L 322.351472 62.666761 
L 322.351472 62.13154 
L 325.224521 62.13154 
L 325.224521 60.525876 
L 328.815833 60.525876 
L 328.815833 59.990655 
L 330.252357 59.990655 
L 330.252357 59.455434 
L 332.407144 59.455434 
L 335.280193 59.455434 
L 335.280193 58.384991 
L 351.081963 58.384991 
L 351.081963 57.84977 
L 351.800225 57.84977 
L 351.800225 57.314549 
L 358.982848 57.314549 
L 358.982848 56.779327 
L 361.855897 56.779327 
L 361.855897 56.244106 
L 366.165471 56.244106 
L 367.601995 56.244106 
L 375.50288 56.244106 
L 375.50288 55.173664 
L 376.221142 55.173664 
L 376.221142 54.638442 
L 384.122027 54.638442 
L 384.122027 54.103221 
L 387.713339 54.103221 
L 398.487273 53.568 
" style="fill:none;opacity:0.8;stroke:#ff0000;stroke-linecap:square;stroke-width:1.5;"/>
   </g>
   <g id="line2d_17">
    <path clip-path="url(#paf8cacc2cd)" d="M 73.832727 295.488 
L 73.832727 295.488 
L 119.08325 83.005168 
L 119.801512 83.005168 
L 119.801512 82.469947 
L 122.674562 82.469947 
L 122.674562 81.934726 
L 124.111086 81.934726 
L 124.829348 81.934726 
L 124.829348 81.399504 
L 130.575447 81.399504 
L 132.011971 81.399504 
L 137.039807 81.399504 
L 138.476331 81.399504 
L 149.968528 81.399504 
L 149.968528 80.329062 
L 152.123315 80.329062 
L 152.123315 79.793841 
L 153.559839 79.793841 
L 153.559839 79.258619 
L 158.587675 79.258619 
L 160.742462 79.258619 
L 175.825969 79.258619 
L 175.825969 78.723398 
L 178.699019 78.723398 
L 178.699019 77.652956 
L 189.472953 77.652956 
L 189.472953 77.117735 
L 229.69564 77.117735 
L 229.69564 76.582513 
L 242.62436 76.582513 
L 245.497409 76.582513 
L 247.652196 76.582513 
L 249.088721 76.582513 
L 251.96177 76.582513 
L 254.116557 76.582513 
L 256.989606 76.582513 
L 257.707868 76.582513 
L 274.2279 76.582513 
L 275.664425 76.582513 
L 285.001834 76.582513 
L 286.438359 76.582513 
L 291.466195 76.582513 
L 291.466195 76.047292 
L 295.775768 76.047292 
L 295.775768 73.906407 
L 299.36708 73.906407 
L 299.36708 73.371186 
L 302.240129 73.371186 
L 302.240129 72.835965 
L 304.394916 72.835965 
L 304.394916 72.300743 
L 308.704489 72.300743 
L 308.704489 71.230301 
L 310.859276 71.230301 
L 310.859276 70.69508 
L 312.2958 70.69508 
L 312.2958 70.159858 
L 318.041899 70.159858 
L 318.041899 69.089416 
L 318.760161 69.089416 
L 318.760161 68.018973 
L 320.914948 68.018973 
L 320.914948 67.483752 
L 323.069735 67.483752 
L 323.069735 66.41331 
L 324.506259 66.41331 
L 324.506259 63.737204 
L 326.661046 63.737204 
L 326.661046 61.596319 
L 328.815833 61.596319 
L 328.815833 60.525876 
L 329.534095 60.525876 
L 329.534095 59.455434 
L 332.407144 59.455434 
L 332.407144 58.384991 
L 333.843669 58.384991 
L 336.716718 58.384991 
L 336.716718 57.84977 
L 343.181078 57.84977 
L 343.181078 57.314549 
L 352.518488 57.314549 
L 352.518488 56.779327 
L 357.546323 56.779327 
L 357.546323 56.244106 
L 374.784618 56.244106 
L 376.221142 56.244106 
L 379.812454 56.244106 
L 379.812454 55.173664 
L 382.685503 55.173664 
L 382.685503 54.638442 
L 389.868126 54.638442 
L 398.487273 53.568 
" style="fill:none;opacity:0.8;stroke:#ff0000;stroke-linecap:square;stroke-width:1.5;"/>
   </g>
   <g id="line2d_18">
    <path clip-path="url(#paf8cacc2cd)" d="M 73.832727 295.488 
L 73.832727 295.488 
L 134.88502 76.582513 
L 135.603282 76.582513 
L 135.603282 76.047292 
L 147.095479 76.047292 
L 147.095479 75.512071 
L 153.559839 75.512071 
L 153.559839 74.441628 
L 155.714626 74.441628 
L 155.714626 73.906407 
L 161.460724 73.906407 
L 161.460724 73.371186 
L 164.333773 73.371186 
L 165.770298 73.371186 
L 188.036428 73.371186 
L 189.472953 73.371186 
L 193.064264 73.371186 
L 194.500788 73.371186 
L 197.373837 73.371186 
L 197.373837 72.835965 
L 198.0921 72.835965 
L 198.0921 72.300743 
L 200.246887 72.300743 
L 201.683411 72.300743 
L 202.401673 72.300743 
L 203.838198 72.300743 
L 211.739083 72.300743 
L 213.175607 72.300743 
L 213.89387 72.300743 
L 215.330394 72.300743 
L 219.639968 72.300743 
L 221.076492 72.300743 
L 239.033049 72.300743 
L 240.469574 72.300743 
L 251.96177 72.300743 
L 254.116557 72.300743 
L 254.834819 72.300743 
L 257.707868 72.300743 
L 259.144393 72.300743 
L 260.580917 72.300743 
L 262.017442 72.300743 
L 263.453966 72.300743 
L 282.847047 72.300743 
L 284.283572 72.300743 
L 284.283572 71.765522 
L 288.593146 71.765522 
L 290.02967 71.765522 
L 290.747932 71.765522 
L 292.184457 71.765522 
L 293.620981 71.765522 
L 296.494031 71.765522 
L 297.212293 71.765522 
L 297.212293 71.230301 
L 300.085342 71.230301 
L 300.085342 70.69508 
L 302.240129 70.69508 
L 304.394916 70.69508 
L 307.986227 70.69508 
L 307.986227 70.159858 
L 310.141014 70.159858 
L 310.141014 69.089416 
L 317.323636 69.089416 
L 317.323636 68.554195 
L 318.760161 68.554195 
L 318.760161 68.018973 
L 319.478423 68.018973 
L 319.478423 65.878088 
L 320.196685 65.878088 
L 320.196685 64.272425 
L 320.914948 64.272425 
L 320.914948 63.737204 
L 322.351472 63.737204 
L 322.351472 62.13154 
L 326.661046 62.13154 
L 326.661046 61.596319 
L 330.970619 61.596319 
L 330.970619 60.525876 
L 344.617603 60.525876 
L 344.617603 59.990655 
L 348.927176 59.990655 
L 348.927176 58.920212 
L 349.645438 58.920212 
L 349.645438 57.84977 
L 350.363701 57.84977 
L 350.363701 57.314549 
L 351.800225 57.314549 
L 351.800225 56.779327 
L 354.673274 56.779327 
L 354.673274 56.244106 
L 365.447208 56.244106 
L 365.447208 55.708885 
L 366.165471 55.708885 
L 366.165471 55.173664 
L 371.193307 55.173664 
L 371.193307 54.638442 
L 374.066356 54.638442 
L 376.221142 54.638442 
L 380.530716 54.638442 
L 380.530716 54.103221 
L 381.967241 54.103221 
L 383.403765 54.103221 
L 392.022912 54.103221 
L 398.487273 53.568 
" style="fill:none;opacity:0.8;stroke:#ff0000;stroke-linecap:square;stroke-width:1.5;"/>
   </g>
   <g id="line2d_19">
    <path clip-path="url(#paf8cacc2cd)" d="M 73.832727 295.488 
L 73.832727 295.488 
L 120.519775 78.188177 
L 132.730233 78.188177 
L 132.730233 77.117735 
L 140.631118 77.117735 
L 142.067643 77.117735 
L 157.869413 77.117735 
L 159.305937 77.117735 
L 175.825969 77.117735 
L 177.262494 77.117735 
L 193.064264 77.117735 
L 194.500788 77.117735 
L 195.219051 77.117735 
L 196.655575 77.117735 
L 198.0921 77.117735 
L 198.0921 76.582513 
L 206.711247 76.582513 
L 210.302558 76.582513 
L 217.485181 76.582513 
L 218.921706 76.582513 
L 228.259115 76.582513 
L 229.69564 76.582513 
L 230.413902 76.582513 
L 230.413902 76.047292 
L 244.060885 76.047292 
L 245.497409 76.047292 
L 247.652196 76.047292 
L 249.806983 76.047292 
L 267.76354 76.047292 
L 269.918327 76.047292 
L 270.636589 76.047292 
L 272.073113 76.047292 
L 283.56531 76.047292 
L 285.001834 76.047292 
L 285.720097 76.047292 
L 287.156621 76.047292 
L 287.156621 75.512071 
L 288.593146 75.512071 
L 288.593146 74.97685 
L 293.620981 74.97685 
L 293.620981 74.441628 
L 296.494031 74.441628 
L 296.494031 73.371186 
L 299.36708 73.371186 
L 299.36708 72.835965 
L 305.113178 72.835965 
L 306.549702 72.835965 
L 309.422751 72.835965 
L 309.422751 72.300743 
L 310.141014 72.300743 
L 310.141014 71.765522 
L 311.577538 71.765522 
L 311.577538 71.230301 
L 317.323636 71.230301 
L 317.323636 69.624637 
L 318.041899 69.624637 
L 318.041899 68.554195 
L 319.478423 68.554195 
L 321.63321 68.554195 
L 321.63321 67.483752 
L 323.069735 67.483752 
L 324.506259 67.483752 
L 326.661046 67.483752 
L 326.661046 66.948531 
L 328.09757 66.948531 
L 328.09757 65.878088 
L 328.815833 65.878088 
L 328.815833 64.807646 
L 329.534095 64.807646 
L 329.534095 64.272425 
L 333.125406 64.272425 
L 333.125406 63.737204 
L 355.391537 63.737204 
L 355.391537 63.201982 
L 356.109799 63.201982 
L 356.109799 62.666761 
L 357.546323 62.666761 
L 357.546323 62.13154 
L 358.264586 62.13154 
L 358.264586 61.596319 
L 359.70111 61.596319 
L 359.70111 59.990655 
L 360.419372 59.990655 
L 360.419372 58.920212 
L 364.010684 58.920212 
L 364.010684 58.384991 
L 366.165471 58.384991 
L 366.883733 58.384991 
L 366.883733 57.84977 
L 367.601995 57.84977 
L 367.601995 56.244106 
L 374.066356 56.244106 
L 374.066356 55.708885 
L 379.812454 55.708885 
L 379.812454 55.173664 
L 392.022912 55.173664 
L 392.022912 54.638442 
L 392.741175 54.638442 
L 398.487273 53.568 
" style="fill:none;opacity:0.8;stroke:#ff0000;stroke-linecap:square;stroke-width:1.5;"/>
   </g>
   <g id="line2d_20">
    <path clip-path="url(#paf8cacc2cd)" d="M 73.832727 295.488 
L 73.832727 295.488 
L 124.111086 88.892602 
L 130.575447 88.892602 
L 130.575447 88.357381 
L 133.448496 88.357381 
L 133.448496 87.822159 
L 138.476331 87.822159 
L 138.476331 87.286938 
L 146.377216 87.286938 
L 146.377216 86.751717 
L 147.813741 86.751717 
L 149.250265 86.751717 
L 169.361609 86.751717 
L 169.361609 86.216496 
L 172.95292 86.216496 
L 172.95292 85.681274 
L 184.445117 85.681274 
L 185.881641 85.681274 
L 190.191215 85.681274 
L 190.191215 85.146053 
L 194.500788 85.146053 
L 195.937313 85.146053 
L 213.175607 85.146053 
L 215.330394 85.146053 
L 249.088721 85.146053 
L 250.525245 85.146053 
L 251.243508 85.146053 
L 252.680032 85.146053 
L 254.834819 85.146053 
L 257.707868 85.146053 
L 262.735704 85.146053 
L 262.735704 84.610832 
L 282.128785 84.610832 
L 285.720097 84.610832 
L 285.720097 84.075611 
L 287.156621 84.075611 
L 287.156621 83.540389 
L 291.466195 83.540389 
L 293.620981 83.540389 
L 300.803604 83.540389 
L 300.803604 82.469947 
L 301.521866 82.469947 
L 301.521866 81.934726 
L 303.676653 81.934726 
L 303.676653 81.399504 
L 304.394916 81.399504 
L 305.83144 81.399504 
L 305.83144 80.864283 
L 307.986227 80.864283 
L 307.986227 79.793841 
L 308.704489 79.793841 
L 308.704489 78.188177 
L 309.422751 78.188177 
L 311.577538 78.188177 
L 313.732325 78.188177 
L 313.732325 77.652956 
L 315.16885 77.652956 
L 315.16885 77.117735 
L 315.887112 77.117735 
L 317.323636 77.117735 
L 319.478423 77.117735 
L 319.478423 76.047292 
L 320.914948 76.047292 
L 320.914948 75.512071 
L 322.351472 75.512071 
L 322.351472 74.441628 
L 324.506259 74.441628 
L 324.506259 73.371186 
L 326.661046 73.371186 
L 326.661046 72.835965 
L 327.379308 72.835965 
L 327.379308 72.300743 
L 328.09757 72.300743 
L 328.09757 71.765522 
L 329.534095 71.765522 
L 330.970619 71.765522 
L 331.688882 71.765522 
L 331.688882 71.230301 
L 333.125406 71.230301 
L 334.561931 71.230301 
L 335.998455 71.230301 
L 335.998455 70.69508 
L 336.716718 70.69508 
L 336.716718 70.159858 
L 338.153242 70.159858 
L 338.153242 69.089416 
L 339.589767 69.089416 
L 339.589767 68.554195 
L 341.744553 68.554195 
L 341.744553 68.018973 
L 346.772389 68.018973 
L 346.772389 67.483752 
L 348.927176 67.483752 
L 348.927176 66.41331 
L 349.645438 66.41331 
L 349.645438 65.878088 
L 352.518488 65.878088 
L 352.518488 64.807646 
L 354.673274 64.807646 
L 354.673274 63.737204 
L 356.109799 63.737204 
L 356.109799 62.666761 
L 356.828061 62.666761 
L 356.828061 62.13154 
L 357.546323 62.13154 
L 357.546323 61.061097 
L 358.982848 61.061097 
L 358.982848 60.525876 
L 359.70111 60.525876 
L 359.70111 59.455434 
L 369.03852 59.455434 
L 369.03852 58.920212 
L 369.756782 58.920212 
L 369.756782 57.84977 
L 373.348093 57.84977 
L 373.348093 56.779327 
L 378.375929 56.779327 
L 378.375929 56.244106 
L 379.094191 56.244106 
L 379.094191 55.708885 
L 380.530716 55.708885 
L 386.276814 55.708885 
L 398.487273 53.568 
" style="fill:none;opacity:0.8;stroke:#ff0000;stroke-linecap:square;stroke-width:1.5;"/>
   </g>
   <g id="line2d_21">
    <path clip-path="url(#paf8cacc2cd)" d="M 73.832727 295.488 
L 73.832727 295.488 
L 116.928463 87.822159 
L 118.364988 87.822159 
L 120.519775 87.822159 
L 120.519775 87.286938 
L 121.956299 87.286938 
L 121.956299 86.751717 
L 122.674562 86.751717 
L 124.111086 86.751717 
L 126.265873 86.751717 
L 126.265873 86.216496 
L 138.476331 86.216496 
L 138.476331 85.681274 
L 139.912856 85.681274 
L 139.912856 85.146053 
L 147.095479 85.146053 
L 147.095479 84.610832 
L 155.714626 84.610832 
L 155.714626 84.075611 
L 165.052035 84.075611 
L 165.052035 83.540389 
L 167.925084 83.540389 
L 167.925084 83.005168 
L 170.079871 83.005168 
L 170.079871 82.469947 
L 177.980756 82.469947 
L 177.980756 81.934726 
L 180.135543 81.934726 
L 180.135543 81.399504 
L 181.572068 81.399504 
L 192.346002 81.399504 
L 193.782526 81.399504 
L 194.500788 81.399504 
L 196.655575 81.399504 
L 200.965149 81.399504 
L 200.965149 80.864283 
L 234.723475 80.864283 
L 236.16 80.864283 
L 248.370459 80.864283 
L 249.806983 80.864283 
L 253.398294 80.864283 
L 254.834819 80.864283 
L 257.707868 80.864283 
L 271.354851 80.864283 
L 276.382687 80.864283 
L 276.382687 80.329062 
L 282.128785 80.329062 
L 284.283572 80.329062 
L 285.001834 80.329062 
L 287.156621 80.329062 
L 287.874883 80.329062 
L 287.874883 79.793841 
L 288.593146 79.793841 
L 288.593146 79.258619 
L 289.311408 79.258619 
L 289.311408 78.723398 
L 290.02967 78.723398 
L 290.02967 77.652956 
L 295.775768 77.652956 
L 295.775768 77.117735 
L 297.212293 77.117735 
L 297.212293 76.582513 
L 300.803604 76.582513 
L 300.803604 76.047292 
L 302.240129 76.047292 
L 302.240129 75.512071 
L 305.83144 75.512071 
L 305.83144 74.441628 
L 307.986227 74.441628 
L 307.986227 73.906407 
L 309.422751 73.906407 
L 309.422751 73.371186 
L 311.577538 73.371186 
L 311.577538 72.300743 
L 312.2958 72.300743 
L 312.2958 71.765522 
L 313.732325 71.765522 
L 313.732325 70.69508 
L 314.450587 70.69508 
L 314.450587 69.624637 
L 315.16885 69.624637 
L 315.16885 69.089416 
L 316.605374 69.089416 
L 316.605374 68.018973 
L 317.323636 68.018973 
L 317.323636 66.948531 
L 318.041899 66.948531 
L 318.041899 66.41331 
L 322.351472 66.41331 
L 322.351472 65.878088 
L 323.069735 65.878088 
L 323.069735 64.807646 
L 325.224521 64.807646 
L 325.224521 64.272425 
L 326.661046 64.272425 
L 326.661046 63.737204 
L 328.815833 63.737204 
L 328.815833 62.666761 
L 330.970619 62.666761 
L 330.970619 62.13154 
L 335.280193 62.13154 
L 335.280193 61.061097 
L 336.716718 61.061097 
L 336.716718 60.525876 
L 340.308029 60.525876 
L 342.462816 60.525876 
L 343.181078 60.525876 
L 343.181078 59.990655 
L 344.617603 59.990655 
L 344.617603 58.920212 
L 348.208914 58.920212 
L 348.208914 57.314549 
L 355.391537 57.314549 
L 355.391537 56.779327 
L 356.109799 56.779327 
L 357.546323 56.779327 
L 361.137635 56.779327 
L 361.137635 55.708885 
L 364.010684 55.708885 
L 364.010684 55.173664 
L 371.911569 55.173664 
L 371.911569 54.638442 
L 380.530716 54.638442 
L 380.530716 54.103221 
L 384.84029 54.103221 
L 398.487273 53.568 
" style="fill:none;opacity:0.8;stroke:#ff0000;stroke-linecap:square;stroke-width:1.5;"/>
   </g>
   <g id="line2d_22">
    <path clip-path="url(#paf8cacc2cd)" d="M 73.832727 295.488 
L 73.832727 295.488 
L 120.727273 78.2976 
L 123.613091 78.2976 
L 123.613091 77.2224 
L 125.056 77.2224 
L 125.056 76.6848 
L 134.434909 76.6848 
L 134.434909 76.1472 
L 139.485091 76.1472 
L 139.485091 75.6096 
L 153.914182 75.6096 
L 155.357091 75.6096 
L 188.544 75.6096 
L 191.429818 75.6096 
L 193.594182 75.6096 
L 195.037091 75.6096 
L 209.466182 75.6096 
L 210.909091 75.6096 
L 234.717091 75.6096 
L 236.16 75.6096 
L 237.602909 75.6096 
L 239.045818 75.6096 
L 240.488727 75.6096 
L 241.931636 75.6096 
L 244.817455 75.6096 
L 250.589091 75.6096 
L 252.032 75.6096 
L 253.474909 75.6096 
L 278.725818 75.6096 
L 279.447273 75.6096 
L 281.611636 75.6096 
L 283.054545 75.6096 
L 283.054545 75.072 
L 288.104727 75.072 
L 289.547636 75.072 
L 290.990545 75.072 
L 292.433455 75.072 
L 292.433455 74.5344 
L 293.154909 74.5344 
L 293.154909 73.9968 
L 294.597818 73.9968 
L 294.597818 73.4592 
L 295.319273 73.4592 
L 295.319273 72.9216 
L 301.090909 72.9216 
L 301.090909 71.8464 
L 303.255273 71.8464 
L 303.255273 71.3088 
L 309.026909 71.3088 
L 309.026909 70.7712 
L 313.355636 70.7712 
L 313.355636 69.1584 
L 314.798545 69.1584 
L 316.962909 69.1584 
L 319.127273 69.1584 
L 319.127273 68.6208 
L 319.848727 68.6208 
L 319.848727 68.0832 
L 320.570182 68.0832 
L 320.570182 67.008 
L 322.013091 67.008 
L 322.013091 64.32 
L 323.456 64.32 
L 323.456 62.1696 
L 323.456 61.0944 
L 324.177455 61.0944 
L 325.620364 61.0944 
L 329.227636 61.0944 
L 329.227636 60.0192 
L 331.392 60.0192 
L 331.392 59.4816 
L 334.277818 59.4816 
L 334.277818 58.944 
L 335.720727 58.944 
L 335.720727 58.4064 
L 347.264 58.4064 
L 347.264 57.8688 
L 354.478545 57.8688 
L 354.478545 57.3312 
L 366.021818 57.3312 
L 366.021818 56.7936 
L 373.236364 56.7936 
L 373.236364 56.256 
L 378.286545 56.256 
L 378.286545 55.1808 
L 381.172364 55.1808 
L 382.615273 55.1808 
L 383.336727 55.1808 
L 383.336727 54.6432 
L 389.108364 54.6432 
L 398.487273 53.568 
" style="fill:none;opacity:0.8;stroke:#ff0000;stroke-linecap:square;stroke-width:1.5;"/>
   </g>
   <g id="line2d_23">
    <path clip-path="url(#paf8cacc2cd)" d="M 73.832727 295.488 
L 117.055004 103.082363 
L 119.97982 93.227551 
L 120.954758 90.514376 
L 122.579656 87.34039 
L 124.204554 84.601939 
L 125.829451 82.729848 
L 127.454349 82.04019 
L 128.754267 81.467055 
L 132.004062 80.194783 
L 133.953939 79.281558 
L 135.253857 78.893955 
L 138.178673 78.840433 
L 138.503653 78.626345 
L 140.45353 78.519063 
L 141.428468 78.465541 
L 146.95312 78.358496 
L 147.603079 78.251452 
L 151.177854 78.144408 
L 151.502834 77.930319 
L 153.452711 77.876797 
L 153.77769 77.662709 
L 155.402588 77.609187 
L 156.052547 77.502142 
L 161.902179 77.44862 
L 162.552138 77.341576 
L 168.401769 77.234532 
L 169.701687 77.127487 
L 175.551319 77.020443 
L 176.526257 76.966921 
L 178.476134 76.859877 
L 179.126093 76.752833 
L 188.5505 76.645788 
L 189.850418 76.538744 
L 197.974906 76.4317 
L 198.624865 76.324656 
L 229.49792 76.217611 
L 230.797838 76.110567 
L 243.14706 76.003523 
L 244.446978 75.896479 
L 278.244848 75.789434 
L 279.219787 75.735912 
L 284.09448 75.62863 
L 285.069419 75.575108 
L 287.019296 75.521586 
L 287.669255 75.414542 
L 289.619132 75.200453 
L 290.59407 75.093409 
L 293.193907 74.7718 
L 295.143784 74.664518 
L 295.468763 74.610758 
L 295.793743 74.343148 
L 297.093661 74.236103 
L 297.74362 74.129059 
L 300.018477 74.022015 
L 300.993415 73.754404 
L 302.293333 73.379274 
L 302.943292 73.379274 
L 303.268272 73.218469 
L 304.24321 73.111425 
L 305.218149 73.057903 
L 305.543129 73.057903 
L 305.868108 72.790292 
L 307.168026 72.683248 
L 308.467944 72.415638 
L 308.792924 71.933938 
L 309.117903 71.880178 
L 309.442883 71.559046 
L 310.092842 71.559046 
L 310.417821 71.237913 
L 311.39276 71.184391 
L 311.71774 70.542125 
L 313.342637 70.435081 
L 314.642555 69.899146 
L 314.967535 69.899146 
L 315.292514 69.631536 
L 316.592432 69.524491 
L 316.917412 69.310403 
L 317.242391 69.310403 
L 317.567371 68.98927 
L 317.892351 68.98927 
L 318.21733 68.721659 
L 318.54231 68.721659 
L 318.867289 68.454049 
L 319.192269 68.400289 
L 319.517248 67.811545 
L 320.167207 67.757785 
L 320.817166 67.436177 
L 321.142146 67.275611 
L 321.792105 67.168566 
L 322.117084 66.899766 
L 322.442064 66.257501 
L 322.767043 66.257501 
L 323.092023 66.043412 
L 323.417002 66.043412 
L 323.741982 65.720852 
L 324.391941 65.720852 
L 324.716921 65.346198 
L 325.0419 65.346198 
L 325.36688 65.078587 
L 326.341818 65.025065 
L 326.666798 64.489844 
L 327.966716 64.436321 
L 328.291695 64.275755 
L 328.616675 64.275755 
L 328.941654 63.740534 
L 329.916593 63.472447 
L 330.241572 63.472447 
L 330.566552 63.311881 
L 330.891532 63.311881 
L 331.216511 63.097793 
L 331.541491 63.044033 
L 331.86647 62.829944 
L 332.841409 62.7229 
L 333.166388 62.562333 
L 333.816347 62.562333 
L 334.141327 62.134156 
L 335.116265 62.080396 
L 335.441245 61.759264 
L 336.416183 61.544937 
L 336.741163 61.384371 
L 338.041081 61.330849 
L 338.366061 61.170282 
L 339.990958 61.063238 
L 340.640917 60.956194 
L 342.915774 60.84915 
L 343.565733 60.742105 
L 344.540672 60.742105 
L 344.865651 60.581539 
L 347.140508 60.474495 
L 348.115446 60.313691 
L 348.440426 60.099602 
L 348.765405 60.099602 
L 349.090385 59.778469 
L 349.415364 59.778469 
L 349.740344 59.564381 
L 351.690221 59.457337 
L 352.66516 59.189726 
L 354.290057 59.082682 
L 354.615037 59.028922 
L 354.940016 58.814833 
L 355.914955 58.707789 
L 356.239934 58.493701 
L 357.539853 58.440178 
L 357.864832 58.22609 
L 358.839771 58.119046 
L 360.464668 57.637347 
L 361.114627 57.637347 
L 361.439607 57.47678 
L 363.714464 57.423258 
L 364.039443 57.262692 
L 365.339361 57.20917 
L 366.3143 56.994843 
L 367.289238 56.941321 
L 367.614218 56.780755 
L 369.564095 56.727233 
L 369.889075 56.566666 
L 371.188993 56.459622 
L 372.81389 56.299056 
L 373.13887 56.299056 
L 373.463849 56.138251 
L 374.763767 56.031207 
L 375.088747 55.870641 
L 375.413726 55.870641 
L 375.738706 55.710074 
L 378.013563 55.656552 
L 378.663522 55.49551 
L 379.63846 55.441988 
L 379.96344 55.281422 
L 382.563276 55.174377 
L 384.188174 55.013573 
L 385.488092 54.95751 
L 386.46303 54.736333 
L 389.062867 54.616967 
L 390.362785 54.448133 
L 392.637641 54.223241 
L 398.487273 53.568 
L 398.487273 53.568 
" style="fill:none;stroke:#000000;stroke-linecap:square;stroke-width:2;"/>
   </g>
   <g id="line2d_24">
    <path clip-path="url(#paf8cacc2cd)" d="M 73.832727 126.144 
L 73.832727 122.960842 
L 73.832727 119.777684 
L 73.832727 116.594526 
L 73.832727 113.411368 
L 73.832727 110.228211 
L 73.832727 107.045053 
L 73.832727 103.861895 
L 73.832727 100.678737 
L 73.832727 97.495579 
L 73.832727 94.312421 
L 73.832727 91.129263 
L 73.832727 87.946105 
L 73.832727 84.762947 
L 73.832727 81.579789 
L 73.832727 78.396632 
L 73.832727 75.213474 
L 73.832727 72.030316 
L 73.832727 68.847158 
L 73.832727 65.664 
" style="fill:none;stroke:#000000;stroke-dasharray:1,1.65;stroke-dashoffset:0;"/>
   </g>
   <g id="line2d_25">
    <path clip-path="url(#paf8cacc2cd)" d="M 73.832727 126.144 
L 78.104498 126.144 
L 82.376268 126.144 
L 86.648038 126.144 
L 90.919809 126.144 
L 95.191579 126.144 
L 99.463349 126.144 
L 103.73512 126.144 
L 108.00689 126.144 
L 112.27866 126.144 
L 116.550431 126.144 
L 120.822201 126.144 
L 125.093971 126.144 
L 129.365742 126.144 
L 133.637512 126.144 
L 137.909282 126.144 
L 142.181053 126.144 
L 146.452823 126.144 
L 150.724593 126.144 
L 154.996364 126.144 
" style="fill:none;stroke:#000000;stroke-dasharray:1,1.65;stroke-dashoffset:0;"/>
   </g>
   <g id="line2d_26">
    <path clip-path="url(#paf8cacc2cd)" d="M 154.996364 126.144 
L 154.996364 122.960842 
L 154.996364 119.777684 
L 154.996364 116.594526 
L 154.996364 113.411368 
L 154.996364 110.228211 
L 154.996364 107.045053 
L 154.996364 103.861895 
L 154.996364 100.678737 
L 154.996364 97.495579 
L 154.996364 94.312421 
L 154.996364 91.129263 
L 154.996364 87.946105 
L 154.996364 84.762947 
L 154.996364 81.579789 
L 154.996364 78.396632 
L 154.996364 75.213474 
L 154.996364 72.030316 
L 154.996364 68.847158 
L 154.996364 65.664 
" style="fill:none;stroke:#000000;stroke-dasharray:1,1.65;stroke-dashoffset:0;"/>
   </g>
   <g id="line2d_27">
    <path clip-path="url(#paf8cacc2cd)" d="M 73.832727 65.664 
L 78.104498 65.664 
L 82.376268 65.664 
L 86.648038 65.664 
L 90.919809 65.664 
L 95.191579 65.664 
L 99.463349 65.664 
L 103.73512 65.664 
L 108.00689 65.664 
L 112.27866 65.664 
L 116.550431 65.664 
L 120.822201 65.664 
L 125.093971 65.664 
L 129.365742 65.664 
L 133.637512 65.664 
L 137.909282 65.664 
L 142.181053 65.664 
L 146.452823 65.664 
L 150.724593 65.664 
L 154.996364 65.664 
" style="fill:none;stroke:#000000;stroke-dasharray:1,1.65;stroke-dashoffset:0;"/>
   </g>
   <g id="line2d_28">
    <path clip-path="url(#paf8cacc2cd)" d="M 236.16 295.488 
L 236.16 289.121684 
L 236.16 282.755368 
L 236.16 276.389053 
L 236.16 270.022737 
L 236.16 263.656421 
L 236.16 257.290105 
L 236.16 250.923789 
L 236.16 244.557474 
L 236.16 238.191158 
L 236.16 231.824842 
L 236.16 225.458526 
L 236.16 219.092211 
L 236.16 212.725895 
L 236.16 206.359579 
L 236.16 199.993263 
L 236.16 193.626947 
L 236.16 187.260632 
L 236.16 180.894316 
L 236.16 174.528 
" style="fill:none;stroke:#000000;stroke-dasharray:1,1.65;stroke-dashoffset:0;"/>
   </g>
   <g id="line2d_29">
    <path clip-path="url(#paf8cacc2cd)" d="M 236.16 295.488 
L 240.43177 295.488 
L 244.703541 295.488 
L 248.975311 295.488 
L 253.247081 295.488 
L 257.518852 295.488 
L 261.790622 295.488 
L 266.062392 295.488 
L 270.334163 295.488 
L 274.605933 295.488 
L 278.877703 295.488 
L 283.149474 295.488 
L 287.421244 295.488 
L 291.693014 295.488 
L 295.964785 295.488 
L 300.236555 295.488 
L 304.508325 295.488 
L 308.780096 295.488 
L 313.051866 295.488 
L 317.323636 295.488 
" style="fill:none;stroke:#000000;stroke-dasharray:1,1.65;stroke-dashoffset:0;"/>
   </g>
   <g id="line2d_30">
    <path clip-path="url(#paf8cacc2cd)" d="M 317.323636 295.488 
L 317.323636 289.121684 
L 317.323636 282.755368 
L 317.323636 276.389053 
L 317.323636 270.022737 
L 317.323636 263.656421 
L 317.323636 257.290105 
L 317.323636 250.923789 
L 317.323636 244.557474 
L 317.323636 238.191158 
L 317.323636 231.824842 
L 317.323636 225.458526 
L 317.323636 219.092211 
L 317.323636 212.725895 
L 317.323636 206.359579 
L 317.323636 199.993263 
L 317.323636 193.626947 
L 317.323636 187.260632 
L 317.323636 180.894316 
L 317.323636 174.528 
" style="fill:none;stroke:#000000;stroke-dasharray:1,1.65;stroke-dashoffset:0;"/>
   </g>
   <g id="line2d_31">
    <path clip-path="url(#paf8cacc2cd)" d="M 236.16 174.528 
L 240.43177 174.528 
L 244.703541 174.528 
L 248.975311 174.528 
L 253.247081 174.528 
L 257.518852 174.528 
L 261.790622 174.528 
L 266.062392 174.528 
L 270.334163 174.528 
L 274.605933 174.528 
L 278.877703 174.528 
L 283.149474 174.528 
L 287.421244 174.528 
L 291.693014 174.528 
L 295.964785 174.528 
L 300.236555 174.528 
L 304.508325 174.528 
L 308.780096 174.528 
L 313.051866 174.528 
L 317.323636 174.528 
" style="fill:none;stroke:#000000;stroke-dasharray:1,1.65;stroke-dashoffset:0;"/>
   </g>
   <g id="line2d_32">
    <path clip-path="url(#paf8cacc2cd)" d="M 154.996364 126.144 
L 159.268134 128.690526 
L 163.539904 131.237053 
L 167.811675 133.783579 
L 172.083445 136.330105 
L 176.355215 138.876632 
L 180.626986 141.423158 
L 184.898756 143.969684 
L 189.170526 146.516211 
L 193.442297 149.062737 
L 197.714067 151.609263 
L 201.985837 154.155789 
L 206.257608 156.702316 
L 210.529378 159.248842 
L 214.801148 161.795368 
L 219.072919 164.341895 
L 223.344689 166.888421 
L 227.616459 169.434947 
L 231.88823 171.981474 
L 236.16 174.528 
" style="fill:none;stroke:#000000;stroke-dasharray:1,1.65;stroke-dashoffset:0;"/>
   </g>
   <g id="line2d_33">
    <path clip-path="url(#paf8cacc2cd)" d="M 312.205209 294.773357 
L 321.304636 254.364833 
L 323.254513 247.116894 
L 327.154267 233.754453 
L 330.404062 224.228753 
L 333.003898 218.927106 
L 335.603735 214.634758 
L 336.253694 213.373392 
L 337.553612 211.624622 
L 339.503489 209.072291 
L 340.153448 208.659696 
L 340.803407 208.42665 
L 341.453366 207.979516 
L 344.703161 206.707245 
L 346.003079 206.134109 
L 349.252875 204.861838 
L 350.552793 204.288703 
L 353.802588 203.016431 
L 354.452547 202.569297 
L 357.052383 201.530071 
L 357.702342 201.189505 
L 358.352301 200.987911 
L 364.851892 200.880867 
L 365.501851 200.45269 
L 368.101687 200.34517 
L 370.051564 200.131081 
L 381.100868 200.024037 
L 383.700704 199.702904 
L 388.250418 199.702904 
L 388.900377 199.488816 
L 390.850254 199.488816 
L 391.500213 199.060639 
L 395.399967 198.953594 
L 396.049926 198.525417 
L 397.999803 198.418373 
L 397.999803 198.418373 
" style="fill:none;stroke:#000000;stroke-linecap:square;stroke-width:2;"/>
   </g>
   <g id="patch_3">
    <path d="M 57.6 307.584 
L 57.6 41.472 
" style="fill:none;stroke:#000000;stroke-linecap:square;stroke-linejoin:miter;stroke-width:0.8;"/>
   </g>
   <g id="patch_4">
    <path d="M 414.72 307.584 
L 414.72 41.472 
" style="fill:none;stroke:#000000;stroke-linecap:square;stroke-linejoin:miter;stroke-width:0.8;"/>
   </g>
   <g id="patch_5">
    <path d="M 57.6 307.584 
L 414.72 307.584 
" style="fill:none;stroke:#000000;stroke-linecap:square;stroke-linejoin:miter;stroke-width:0.8;"/>
   </g>
   <g id="patch_6">
    <path d="M 57.6 41.472 
L 414.72 41.472 
" style="fill:none;stroke:#000000;stroke-linecap:square;stroke-linejoin:miter;stroke-width:0.8;"/>
   </g>
   <g id="legend_1">
    <g id="patch_7">
     <path d="M 165.081875 256.757687 
L 307.238125 256.757687 
Q 309.238125 256.757687 309.238125 254.757687 
L 309.238125 94.298313 
Q 309.238125 92.298313 307.238125 92.298313 
L 165.081875 92.298313 
Q 163.081875 92.298313 163.081875 94.298313 
L 163.081875 254.757687 
Q 163.081875 256.757687 165.081875 256.757687 
z
" style="fill:#ffffff;opacity:0.8;stroke:#cccccc;stroke-linejoin:miter;"/>
    </g>
    <g id="line2d_34">
     <path d="M 167.081875 100.39675 
L 187.081875 100.39675 
" style="fill:none;opacity:0.8;stroke:#ff0000;stroke-linecap:square;stroke-width:1.5;"/>
    </g>
    <g id="line2d_35"/>
    <g id="text_15">
     <!-- fold 0 (AUC = 0.8619) -->
     <defs>
      <path d="M 37.109375 75.984375 
L 37.109375 68.5 
L 28.515625 68.5 
Q 23.6875 68.5 21.796875 66.546875 
Q 19.921875 64.59375 19.921875 59.515625 
L 19.921875 54.6875 
L 34.71875 54.6875 
L 34.71875 47.703125 
L 19.921875 47.703125 
L 19.921875 0 
L 10.890625 0 
L 10.890625 47.703125 
L 2.296875 47.703125 
L 2.296875 54.6875 
L 10.890625 54.6875 
L 10.890625 58.5 
Q 10.890625 67.625 15.140625 71.796875 
Q 19.390625 75.984375 28.609375 75.984375 
z
" id="DejaVuSans-66"/>
      <path d="M 45.40625 46.390625 
L 45.40625 75.984375 
L 54.390625 75.984375 
L 54.390625 0 
L 45.40625 0 
L 45.40625 8.203125 
Q 42.578125 3.328125 38.25 0.953125 
Q 33.9375 -1.421875 27.875 -1.421875 
Q 17.96875 -1.421875 11.734375 6.484375 
Q 5.515625 14.40625 5.515625 27.296875 
Q 5.515625 40.1875 11.734375 48.09375 
Q 17.96875 56 27.875 56 
Q 33.9375 56 38.25 53.625 
Q 42.578125 51.265625 45.40625 46.390625 
z
M 14.796875 27.296875 
Q 14.796875 17.390625 18.875 11.75 
Q 22.953125 6.109375 30.078125 6.109375 
Q 37.203125 6.109375 41.296875 11.75 
Q 45.40625 17.390625 45.40625 27.296875 
Q 45.40625 37.203125 41.296875 42.84375 
Q 37.203125 48.484375 30.078125 48.484375 
Q 22.953125 48.484375 18.875 42.84375 
Q 14.796875 37.203125 14.796875 27.296875 
z
" id="DejaVuSans-64"/>
      <path d="M 31 75.875 
Q 24.46875 64.65625 21.28125 53.65625 
Q 18.109375 42.671875 18.109375 31.390625 
Q 18.109375 20.125 21.3125 9.0625 
Q 24.515625 -2 31 -13.1875 
L 23.1875 -13.1875 
Q 15.875 -1.703125 12.234375 9.375 
Q 8.59375 20.453125 8.59375 31.390625 
Q 8.59375 42.28125 12.203125 53.3125 
Q 15.828125 64.359375 23.1875 75.875 
z
" id="DejaVuSans-28"/>
      <path d="M 34.1875 63.1875 
L 20.796875 26.90625 
L 47.609375 26.90625 
z
M 28.609375 72.90625 
L 39.796875 72.90625 
L 67.578125 0 
L 57.328125 0 
L 50.6875 18.703125 
L 17.828125 18.703125 
L 11.1875 0 
L 0.78125 0 
z
" id="DejaVuSans-41"/>
      <path d="M 8.6875 72.90625 
L 18.609375 72.90625 
L 18.609375 28.609375 
Q 18.609375 16.890625 22.84375 11.734375 
Q 27.09375 6.59375 36.625 6.59375 
Q 46.09375 6.59375 50.34375 11.734375 
Q 54.59375 16.890625 54.59375 28.609375 
L 54.59375 72.90625 
L 64.5 72.90625 
L 64.5 27.390625 
Q 64.5 13.140625 57.4375 5.859375 
Q 50.390625 -1.421875 36.625 -1.421875 
Q 22.796875 -1.421875 15.734375 5.859375 
Q 8.6875 13.140625 8.6875 27.390625 
z
" id="DejaVuSans-55"/>
      <path d="M 64.40625 67.28125 
L 64.40625 56.890625 
Q 59.421875 61.53125 53.78125 63.8125 
Q 48.140625 66.109375 41.796875 66.109375 
Q 29.296875 66.109375 22.65625 58.46875 
Q 16.015625 50.828125 16.015625 36.375 
Q 16.015625 21.96875 22.65625 14.328125 
Q 29.296875 6.6875 41.796875 6.6875 
Q 48.140625 6.6875 53.78125 8.984375 
Q 59.421875 11.28125 64.40625 15.921875 
L 64.40625 5.609375 
Q 59.234375 2.09375 53.4375 0.328125 
Q 47.65625 -1.421875 41.21875 -1.421875 
Q 24.65625 -1.421875 15.125 8.703125 
Q 5.609375 18.84375 5.609375 36.375 
Q 5.609375 53.953125 15.125 64.078125 
Q 24.65625 74.21875 41.21875 74.21875 
Q 47.75 74.21875 53.53125 72.484375 
Q 59.328125 70.75 64.40625 67.28125 
z
" id="DejaVuSans-43"/>
      <path d="M 10.59375 45.40625 
L 73.1875 45.40625 
L 73.1875 37.203125 
L 10.59375 37.203125 
z
M 10.59375 25.484375 
L 73.1875 25.484375 
L 73.1875 17.1875 
L 10.59375 17.1875 
z
" id="DejaVuSans-3d"/>
      <path d="M 10.984375 1.515625 
L 10.984375 10.5 
Q 14.703125 8.734375 18.5 7.8125 
Q 22.3125 6.890625 25.984375 6.890625 
Q 35.75 6.890625 40.890625 13.453125 
Q 46.046875 20.015625 46.78125 33.40625 
Q 43.953125 29.203125 39.59375 26.953125 
Q 35.25 24.703125 29.984375 24.703125 
Q 19.046875 24.703125 12.671875 31.3125 
Q 6.296875 37.9375 6.296875 49.421875 
Q 6.296875 60.640625 12.9375 67.421875 
Q 19.578125 74.21875 30.609375 74.21875 
Q 43.265625 74.21875 49.921875 64.515625 
Q 56.59375 54.828125 56.59375 36.375 
Q 56.59375 19.140625 48.40625 8.859375 
Q 40.234375 -1.421875 26.421875 -1.421875 
Q 22.703125 -1.421875 18.890625 -0.6875 
Q 15.09375 0.046875 10.984375 1.515625 
z
M 30.609375 32.421875 
Q 37.25 32.421875 41.125 36.953125 
Q 45.015625 41.5 45.015625 49.421875 
Q 45.015625 57.28125 41.125 61.84375 
Q 37.25 66.40625 30.609375 66.40625 
Q 23.96875 66.40625 20.09375 61.84375 
Q 16.21875 57.28125 16.21875 49.421875 
Q 16.21875 41.5 20.09375 36.953125 
Q 23.96875 32.421875 30.609375 32.421875 
z
" id="DejaVuSans-39"/>
      <path d="M 8.015625 75.875 
L 15.828125 75.875 
Q 23.140625 64.359375 26.78125 53.3125 
Q 30.421875 42.28125 30.421875 31.390625 
Q 30.421875 20.453125 26.78125 9.375 
Q 23.140625 -1.703125 15.828125 -13.1875 
L 8.015625 -13.1875 
Q 14.5 -2 17.703125 9.0625 
Q 20.90625 20.125 20.90625 31.390625 
Q 20.90625 42.671875 17.703125 53.65625 
Q 14.5 64.65625 8.015625 75.875 
z
" id="DejaVuSans-29"/>
     </defs>
     <g transform="translate(195.081875 103.89675)scale(0.1 -0.1)">
      <use xlink:href="#DejaVuSans-66"/>
      <use x="35.205078" xlink:href="#DejaVuSans-6f"/>
      <use x="96.386719" xlink:href="#DejaVuSans-6c"/>
      <use x="124.169922" xlink:href="#DejaVuSans-64"/>
      <use x="187.646484" xlink:href="#DejaVuSans-20"/>
      <use x="219.433594" xlink:href="#DejaVuSans-30"/>
      <use x="283.056641" xlink:href="#DejaVuSans-20"/>
      <use x="314.84375" xlink:href="#DejaVuSans-28"/>
      <use x="353.857422" xlink:href="#DejaVuSans-41"/>
      <use x="422.265625" xlink:href="#DejaVuSans-55"/>
      <use x="495.458984" xlink:href="#DejaVuSans-43"/>
      <use x="565.283203" xlink:href="#DejaVuSans-20"/>
      <use x="597.070312" xlink:href="#DejaVuSans-3d"/>
      <use x="680.859375" xlink:href="#DejaVuSans-20"/>
      <use x="712.646484" xlink:href="#DejaVuSans-30"/>
      <use x="776.269531" xlink:href="#DejaVuSans-2e"/>
      <use x="808.056641" xlink:href="#DejaVuSans-38"/>
      <use x="871.679688" xlink:href="#DejaVuSans-36"/>
      <use x="935.302734" xlink:href="#DejaVuSans-31"/>
      <use x="998.925781" xlink:href="#DejaVuSans-39"/>
      <use x="1062.548828" xlink:href="#DejaVuSans-29"/>
     </g>
    </g>
    <g id="line2d_36">
     <path d="M 167.081875 115.074875 
L 187.081875 115.074875 
" style="fill:none;opacity:0.8;stroke:#ff0000;stroke-linecap:square;stroke-width:1.5;"/>
    </g>
    <g id="line2d_37"/>
    <g id="text_16">
     <!-- fold 1 (AUC = 0.8532) -->
     <defs>
      <path d="M 10.796875 72.90625 
L 49.515625 72.90625 
L 49.515625 64.59375 
L 19.828125 64.59375 
L 19.828125 46.734375 
Q 21.96875 47.46875 24.109375 47.828125 
Q 26.265625 48.1875 28.421875 48.1875 
Q 40.625 48.1875 47.75 41.5 
Q 54.890625 34.8125 54.890625 23.390625 
Q 54.890625 11.625 47.5625 5.09375 
Q 40.234375 -1.421875 26.90625 -1.421875 
Q 22.3125 -1.421875 17.546875 -0.640625 
Q 12.796875 0.140625 7.71875 1.703125 
L 7.71875 11.625 
Q 12.109375 9.234375 16.796875 8.0625 
Q 21.484375 6.890625 26.703125 6.890625 
Q 35.15625 6.890625 40.078125 11.328125 
Q 45.015625 15.765625 45.015625 23.390625 
Q 45.015625 31 40.078125 35.4375 
Q 35.15625 39.890625 26.703125 39.890625 
Q 22.75 39.890625 18.8125 39.015625 
Q 14.890625 38.140625 10.796875 36.28125 
z
" id="DejaVuSans-35"/>
      <path d="M 40.578125 39.3125 
Q 47.65625 37.796875 51.625 33 
Q 55.609375 28.21875 55.609375 21.1875 
Q 55.609375 10.40625 48.1875 4.484375 
Q 40.765625 -1.421875 27.09375 -1.421875 
Q 22.515625 -1.421875 17.65625 -0.515625 
Q 12.796875 0.390625 7.625 2.203125 
L 7.625 11.71875 
Q 11.71875 9.328125 16.59375 8.109375 
Q 21.484375 6.890625 26.8125 6.890625 
Q 36.078125 6.890625 40.9375 10.546875 
Q 45.796875 14.203125 45.796875 21.1875 
Q 45.796875 27.640625 41.28125 31.265625 
Q 36.765625 34.90625 28.71875 34.90625 
L 20.21875 34.90625 
L 20.21875 43.015625 
L 29.109375 43.015625 
Q 36.375 43.015625 40.234375 45.921875 
Q 44.09375 48.828125 44.09375 54.296875 
Q 44.09375 59.90625 40.109375 62.90625 
Q 36.140625 65.921875 28.71875 65.921875 
Q 24.65625 65.921875 20.015625 65.03125 
Q 15.375 64.15625 9.8125 62.3125 
L 9.8125 71.09375 
Q 15.4375 72.65625 20.34375 73.4375 
Q 25.25 74.21875 29.59375 74.21875 
Q 40.828125 74.21875 47.359375 69.109375 
Q 53.90625 64.015625 53.90625 55.328125 
Q 53.90625 49.265625 50.4375 45.09375 
Q 46.96875 40.921875 40.578125 39.3125 
z
" id="DejaVuSans-33"/>
     </defs>
     <g transform="translate(195.081875 118.574875)scale(0.1 -0.1)">
      <use xlink:href="#DejaVuSans-66"/>
      <use x="35.205078" xlink:href="#DejaVuSans-6f"/>
      <use x="96.386719" xlink:href="#DejaVuSans-6c"/>
      <use x="124.169922" xlink:href="#DejaVuSans-64"/>
      <use x="187.646484" xlink:href="#DejaVuSans-20"/>
      <use x="219.433594" xlink:href="#DejaVuSans-31"/>
      <use x="283.056641" xlink:href="#DejaVuSans-20"/>
      <use x="314.84375" xlink:href="#DejaVuSans-28"/>
      <use x="353.857422" xlink:href="#DejaVuSans-41"/>
      <use x="422.265625" xlink:href="#DejaVuSans-55"/>
      <use x="495.458984" xlink:href="#DejaVuSans-43"/>
      <use x="565.283203" xlink:href="#DejaVuSans-20"/>
      <use x="597.070312" xlink:href="#DejaVuSans-3d"/>
      <use x="680.859375" xlink:href="#DejaVuSans-20"/>
      <use x="712.646484" xlink:href="#DejaVuSans-30"/>
      <use x="776.269531" xlink:href="#DejaVuSans-2e"/>
      <use x="808.056641" xlink:href="#DejaVuSans-38"/>
      <use x="871.679688" xlink:href="#DejaVuSans-35"/>
      <use x="935.302734" xlink:href="#DejaVuSans-33"/>
      <use x="998.925781" xlink:href="#DejaVuSans-32"/>
      <use x="1062.548828" xlink:href="#DejaVuSans-29"/>
     </g>
    </g>
    <g id="line2d_38">
     <path d="M 167.081875 129.753 
L 187.081875 129.753 
" style="fill:none;opacity:0.8;stroke:#ff0000;stroke-linecap:square;stroke-width:1.5;"/>
    </g>
    <g id="line2d_39"/>
    <g id="text_17">
     <!-- fold 2 (AUC = 0.8806) -->
     <g transform="translate(195.081875 133.253)scale(0.1 -0.1)">
      <use xlink:href="#DejaVuSans-66"/>
      <use x="35.205078" xlink:href="#DejaVuSans-6f"/>
      <use x="96.386719" xlink:href="#DejaVuSans-6c"/>
      <use x="124.169922" xlink:href="#DejaVuSans-64"/>
      <use x="187.646484" xlink:href="#DejaVuSans-20"/>
      <use x="219.433594" xlink:href="#DejaVuSans-32"/>
      <use x="283.056641" xlink:href="#DejaVuSans-20"/>
      <use x="314.84375" xlink:href="#DejaVuSans-28"/>
      <use x="353.857422" xlink:href="#DejaVuSans-41"/>
      <use x="422.265625" xlink:href="#DejaVuSans-55"/>
      <use x="495.458984" xlink:href="#DejaVuSans-43"/>
      <use x="565.283203" xlink:href="#DejaVuSans-20"/>
      <use x="597.070312" xlink:href="#DejaVuSans-3d"/>
      <use x="680.859375" xlink:href="#DejaVuSans-20"/>
      <use x="712.646484" xlink:href="#DejaVuSans-30"/>
      <use x="776.269531" xlink:href="#DejaVuSans-2e"/>
      <use x="808.056641" xlink:href="#DejaVuSans-38"/>
      <use x="871.679688" xlink:href="#DejaVuSans-38"/>
      <use x="935.302734" xlink:href="#DejaVuSans-30"/>
      <use x="998.925781" xlink:href="#DejaVuSans-36"/>
      <use x="1062.548828" xlink:href="#DejaVuSans-29"/>
     </g>
    </g>
    <g id="line2d_40">
     <path d="M 167.081875 144.431125 
L 187.081875 144.431125 
" style="fill:none;opacity:0.8;stroke:#ff0000;stroke-linecap:square;stroke-width:1.5;"/>
    </g>
    <g id="line2d_41"/>
    <g id="text_18">
     <!-- fold 3 (AUC = 0.8562) -->
     <g transform="translate(195.081875 147.931125)scale(0.1 -0.1)">
      <use xlink:href="#DejaVuSans-66"/>
      <use x="35.205078" xlink:href="#DejaVuSans-6f"/>
      <use x="96.386719" xlink:href="#DejaVuSans-6c"/>
      <use x="124.169922" xlink:href="#DejaVuSans-64"/>
      <use x="187.646484" xlink:href="#DejaVuSans-20"/>
      <use x="219.433594" xlink:href="#DejaVuSans-33"/>
      <use x="283.056641" xlink:href="#DejaVuSans-20"/>
      <use x="314.84375" xlink:href="#DejaVuSans-28"/>
      <use x="353.857422" xlink:href="#DejaVuSans-41"/>
      <use x="422.265625" xlink:href="#DejaVuSans-55"/>
      <use x="495.458984" xlink:href="#DejaVuSans-43"/>
      <use x="565.283203" xlink:href="#DejaVuSans-20"/>
      <use x="597.070312" xlink:href="#DejaVuSans-3d"/>
      <use x="680.859375" xlink:href="#DejaVuSans-20"/>
      <use x="712.646484" xlink:href="#DejaVuSans-30"/>
      <use x="776.269531" xlink:href="#DejaVuSans-2e"/>
      <use x="808.056641" xlink:href="#DejaVuSans-38"/>
      <use x="871.679688" xlink:href="#DejaVuSans-35"/>
      <use x="935.302734" xlink:href="#DejaVuSans-36"/>
      <use x="998.925781" xlink:href="#DejaVuSans-32"/>
      <use x="1062.548828" xlink:href="#DejaVuSans-29"/>
     </g>
    </g>
    <g id="line2d_42">
     <path d="M 167.081875 159.10925 
L 187.081875 159.10925 
" style="fill:none;opacity:0.8;stroke:#ff0000;stroke-linecap:square;stroke-width:1.5;"/>
    </g>
    <g id="line2d_43"/>
    <g id="text_19">
     <!-- fold 4 (AUC = 0.8573) -->
     <defs>
      <path d="M 8.203125 72.90625 
L 55.078125 72.90625 
L 55.078125 68.703125 
L 28.609375 0 
L 18.3125 0 
L 43.21875 64.59375 
L 8.203125 64.59375 
z
" id="DejaVuSans-37"/>
     </defs>
     <g transform="translate(195.081875 162.60925)scale(0.1 -0.1)">
      <use xlink:href="#DejaVuSans-66"/>
      <use x="35.205078" xlink:href="#DejaVuSans-6f"/>
      <use x="96.386719" xlink:href="#DejaVuSans-6c"/>
      <use x="124.169922" xlink:href="#DejaVuSans-64"/>
      <use x="187.646484" xlink:href="#DejaVuSans-20"/>
      <use x="219.433594" xlink:href="#DejaVuSans-34"/>
      <use x="283.056641" xlink:href="#DejaVuSans-20"/>
      <use x="314.84375" xlink:href="#DejaVuSans-28"/>
      <use x="353.857422" xlink:href="#DejaVuSans-41"/>
      <use x="422.265625" xlink:href="#DejaVuSans-55"/>
      <use x="495.458984" xlink:href="#DejaVuSans-43"/>
      <use x="565.283203" xlink:href="#DejaVuSans-20"/>
      <use x="597.070312" xlink:href="#DejaVuSans-3d"/>
      <use x="680.859375" xlink:href="#DejaVuSans-20"/>
      <use x="712.646484" xlink:href="#DejaVuSans-30"/>
      <use x="776.269531" xlink:href="#DejaVuSans-2e"/>
      <use x="808.056641" xlink:href="#DejaVuSans-38"/>
      <use x="871.679688" xlink:href="#DejaVuSans-35"/>
      <use x="935.302734" xlink:href="#DejaVuSans-37"/>
      <use x="998.925781" xlink:href="#DejaVuSans-33"/>
      <use x="1062.548828" xlink:href="#DejaVuSans-29"/>
     </g>
    </g>
    <g id="line2d_44">
     <path d="M 167.081875 173.787375 
L 187.081875 173.787375 
" style="fill:none;opacity:0.8;stroke:#ff0000;stroke-linecap:square;stroke-width:1.5;"/>
    </g>
    <g id="line2d_45"/>
    <g id="text_20">
     <!-- fold 5 (AUC = 0.8484) -->
     <g transform="translate(195.081875 177.287375)scale(0.1 -0.1)">
      <use xlink:href="#DejaVuSans-66"/>
      <use x="35.205078" xlink:href="#DejaVuSans-6f"/>
      <use x="96.386719" xlink:href="#DejaVuSans-6c"/>
      <use x="124.169922" xlink:href="#DejaVuSans-64"/>
      <use x="187.646484" xlink:href="#DejaVuSans-20"/>
      <use x="219.433594" xlink:href="#DejaVuSans-35"/>
      <use x="283.056641" xlink:href="#DejaVuSans-20"/>
      <use x="314.84375" xlink:href="#DejaVuSans-28"/>
      <use x="353.857422" xlink:href="#DejaVuSans-41"/>
      <use x="422.265625" xlink:href="#DejaVuSans-55"/>
      <use x="495.458984" xlink:href="#DejaVuSans-43"/>
      <use x="565.283203" xlink:href="#DejaVuSans-20"/>
      <use x="597.070312" xlink:href="#DejaVuSans-3d"/>
      <use x="680.859375" xlink:href="#DejaVuSans-20"/>
      <use x="712.646484" xlink:href="#DejaVuSans-30"/>
      <use x="776.269531" xlink:href="#DejaVuSans-2e"/>
      <use x="808.056641" xlink:href="#DejaVuSans-38"/>
      <use x="871.679688" xlink:href="#DejaVuSans-34"/>
      <use x="935.302734" xlink:href="#DejaVuSans-38"/>
      <use x="998.925781" xlink:href="#DejaVuSans-34"/>
      <use x="1062.548828" xlink:href="#DejaVuSans-29"/>
     </g>
    </g>
    <g id="line2d_46">
     <path d="M 167.081875 188.4655 
L 187.081875 188.4655 
" style="fill:none;opacity:0.8;stroke:#ff0000;stroke-linecap:square;stroke-width:1.5;"/>
    </g>
    <g id="line2d_47"/>
    <g id="text_21">
     <!-- fold 6 (AUC = 0.8569) -->
     <g transform="translate(195.081875 191.9655)scale(0.1 -0.1)">
      <use xlink:href="#DejaVuSans-66"/>
      <use x="35.205078" xlink:href="#DejaVuSans-6f"/>
      <use x="96.386719" xlink:href="#DejaVuSans-6c"/>
      <use x="124.169922" xlink:href="#DejaVuSans-64"/>
      <use x="187.646484" xlink:href="#DejaVuSans-20"/>
      <use x="219.433594" xlink:href="#DejaVuSans-36"/>
      <use x="283.056641" xlink:href="#DejaVuSans-20"/>
      <use x="314.84375" xlink:href="#DejaVuSans-28"/>
      <use x="353.857422" xlink:href="#DejaVuSans-41"/>
      <use x="422.265625" xlink:href="#DejaVuSans-55"/>
      <use x="495.458984" xlink:href="#DejaVuSans-43"/>
      <use x="565.283203" xlink:href="#DejaVuSans-20"/>
      <use x="597.070312" xlink:href="#DejaVuSans-3d"/>
      <use x="680.859375" xlink:href="#DejaVuSans-20"/>
      <use x="712.646484" xlink:href="#DejaVuSans-30"/>
      <use x="776.269531" xlink:href="#DejaVuSans-2e"/>
      <use x="808.056641" xlink:href="#DejaVuSans-38"/>
      <use x="871.679688" xlink:href="#DejaVuSans-35"/>
      <use x="935.302734" xlink:href="#DejaVuSans-36"/>
      <use x="998.925781" xlink:href="#DejaVuSans-39"/>
      <use x="1062.548828" xlink:href="#DejaVuSans-29"/>
     </g>
    </g>
    <g id="line2d_48">
     <path d="M 167.081875 203.143625 
L 187.081875 203.143625 
" style="fill:none;opacity:0.8;stroke:#ff0000;stroke-linecap:square;stroke-width:1.5;"/>
    </g>
    <g id="line2d_49"/>
    <g id="text_22">
     <!-- fold 7 (AUC = 0.8236) -->
     <g transform="translate(195.081875 206.643625)scale(0.1 -0.1)">
      <use xlink:href="#DejaVuSans-66"/>
      <use x="35.205078" xlink:href="#DejaVuSans-6f"/>
      <use x="96.386719" xlink:href="#DejaVuSans-6c"/>
      <use x="124.169922" xlink:href="#DejaVuSans-64"/>
      <use x="187.646484" xlink:href="#DejaVuSans-20"/>
      <use x="219.433594" xlink:href="#DejaVuSans-37"/>
      <use x="283.056641" xlink:href="#DejaVuSans-20"/>
      <use x="314.84375" xlink:href="#DejaVuSans-28"/>
      <use x="353.857422" xlink:href="#DejaVuSans-41"/>
      <use x="422.265625" xlink:href="#DejaVuSans-55"/>
      <use x="495.458984" xlink:href="#DejaVuSans-43"/>
      <use x="565.283203" xlink:href="#DejaVuSans-20"/>
      <use x="597.070312" xlink:href="#DejaVuSans-3d"/>
      <use x="680.859375" xlink:href="#DejaVuSans-20"/>
      <use x="712.646484" xlink:href="#DejaVuSans-30"/>
      <use x="776.269531" xlink:href="#DejaVuSans-2e"/>
      <use x="808.056641" xlink:href="#DejaVuSans-38"/>
      <use x="871.679688" xlink:href="#DejaVuSans-32"/>
      <use x="935.302734" xlink:href="#DejaVuSans-33"/>
      <use x="998.925781" xlink:href="#DejaVuSans-36"/>
      <use x="1062.548828" xlink:href="#DejaVuSans-29"/>
     </g>
    </g>
    <g id="line2d_50">
     <path d="M 167.081875 217.82175 
L 187.081875 217.82175 
" style="fill:none;opacity:0.8;stroke:#ff0000;stroke-linecap:square;stroke-width:1.5;"/>
    </g>
    <g id="line2d_51"/>
    <g id="text_23">
     <!-- fold 8 (AUC = 0.8489) -->
     <g transform="translate(195.081875 221.32175)scale(0.1 -0.1)">
      <use xlink:href="#DejaVuSans-66"/>
      <use x="35.205078" xlink:href="#DejaVuSans-6f"/>
      <use x="96.386719" xlink:href="#DejaVuSans-6c"/>
      <use x="124.169922" xlink:href="#DejaVuSans-64"/>
      <use x="187.646484" xlink:href="#DejaVuSans-20"/>
      <use x="219.433594" xlink:href="#DejaVuSans-38"/>
      <use x="283.056641" xlink:href="#DejaVuSans-20"/>
      <use x="314.84375" xlink:href="#DejaVuSans-28"/>
      <use x="353.857422" xlink:href="#DejaVuSans-41"/>
      <use x="422.265625" xlink:href="#DejaVuSans-55"/>
      <use x="495.458984" xlink:href="#DejaVuSans-43"/>
      <use x="565.283203" xlink:href="#DejaVuSans-20"/>
      <use x="597.070312" xlink:href="#DejaVuSans-3d"/>
      <use x="680.859375" xlink:href="#DejaVuSans-20"/>
      <use x="712.646484" xlink:href="#DejaVuSans-30"/>
      <use x="776.269531" xlink:href="#DejaVuSans-2e"/>
      <use x="808.056641" xlink:href="#DejaVuSans-38"/>
      <use x="871.679688" xlink:href="#DejaVuSans-34"/>
      <use x="935.302734" xlink:href="#DejaVuSans-38"/>
      <use x="998.925781" xlink:href="#DejaVuSans-39"/>
      <use x="1062.548828" xlink:href="#DejaVuSans-29"/>
     </g>
    </g>
    <g id="line2d_52">
     <path d="M 167.081875 232.499875 
L 187.081875 232.499875 
" style="fill:none;opacity:0.8;stroke:#ff0000;stroke-linecap:square;stroke-width:1.5;"/>
    </g>
    <g id="line2d_53"/>
    <g id="text_24">
     <!-- fold 9 (AUC = 0.8618) -->
     <g transform="translate(195.081875 235.999875)scale(0.1 -0.1)">
      <use xlink:href="#DejaVuSans-66"/>
      <use x="35.205078" xlink:href="#DejaVuSans-6f"/>
      <use x="96.386719" xlink:href="#DejaVuSans-6c"/>
      <use x="124.169922" xlink:href="#DejaVuSans-64"/>
      <use x="187.646484" xlink:href="#DejaVuSans-20"/>
      <use x="219.433594" xlink:href="#DejaVuSans-39"/>
      <use x="283.056641" xlink:href="#DejaVuSans-20"/>
      <use x="314.84375" xlink:href="#DejaVuSans-28"/>
      <use x="353.857422" xlink:href="#DejaVuSans-41"/>
      <use x="422.265625" xlink:href="#DejaVuSans-55"/>
      <use x="495.458984" xlink:href="#DejaVuSans-43"/>
      <use x="565.283203" xlink:href="#DejaVuSans-20"/>
      <use x="597.070312" xlink:href="#DejaVuSans-3d"/>
      <use x="680.859375" xlink:href="#DejaVuSans-20"/>
      <use x="712.646484" xlink:href="#DejaVuSans-30"/>
      <use x="776.269531" xlink:href="#DejaVuSans-2e"/>
      <use x="808.056641" xlink:href="#DejaVuSans-38"/>
      <use x="871.679688" xlink:href="#DejaVuSans-36"/>
      <use x="935.302734" xlink:href="#DejaVuSans-31"/>
      <use x="998.925781" xlink:href="#DejaVuSans-38"/>
      <use x="1062.548828" xlink:href="#DejaVuSans-29"/>
     </g>
    </g>
    <g id="line2d_54">
     <path d="M 167.081875 247.178 
L 187.081875 247.178 
" style="fill:none;stroke:#000000;stroke-linecap:square;stroke-width:2;"/>
    </g>
    <g id="line2d_55"/>
    <g id="text_25">
     <!-- Mean (AUC = 0.8549) -->
     <defs>
      <path d="M 9.8125 72.90625 
L 24.515625 72.90625 
L 43.109375 23.296875 
L 61.8125 72.90625 
L 76.515625 72.90625 
L 76.515625 0 
L 66.890625 0 
L 66.890625 64.015625 
L 48.09375 14.015625 
L 38.1875 14.015625 
L 19.390625 64.015625 
L 19.390625 0 
L 9.8125 0 
z
" id="DejaVuSans-4d"/>
      <path d="M 54.890625 33.015625 
L 54.890625 0 
L 45.90625 0 
L 45.90625 32.71875 
Q 45.90625 40.484375 42.875 44.328125 
Q 39.84375 48.1875 33.796875 48.1875 
Q 26.515625 48.1875 22.3125 43.546875 
Q 18.109375 38.921875 18.109375 30.90625 
L 18.109375 0 
L 9.078125 0 
L 9.078125 54.6875 
L 18.109375 54.6875 
L 18.109375 46.1875 
Q 21.34375 51.125 25.703125 53.5625 
Q 30.078125 56 35.796875 56 
Q 45.21875 56 50.046875 50.171875 
Q 54.890625 44.34375 54.890625 33.015625 
z
" id="DejaVuSans-6e"/>
     </defs>
     <g transform="translate(195.081875 250.678)scale(0.1 -0.1)">
      <use xlink:href="#DejaVuSans-4d"/>
      <use x="86.279297" xlink:href="#DejaVuSans-65"/>
      <use x="147.802734" xlink:href="#DejaVuSans-61"/>
      <use x="209.082031" xlink:href="#DejaVuSans-6e"/>
      <use x="272.460938" xlink:href="#DejaVuSans-20"/>
      <use x="304.248047" xlink:href="#DejaVuSans-28"/>
      <use x="343.261719" xlink:href="#DejaVuSans-41"/>
      <use x="411.669922" xlink:href="#DejaVuSans-55"/>
      <use x="484.863281" xlink:href="#DejaVuSans-43"/>
      <use x="554.6875" xlink:href="#DejaVuSans-20"/>
      <use x="586.474609" xlink:href="#DejaVuSans-3d"/>
      <use x="670.263672" xlink:href="#DejaVuSans-20"/>
      <use x="702.050781" xlink:href="#DejaVuSans-30"/>
      <use x="765.673828" xlink:href="#DejaVuSans-2e"/>
      <use x="797.460938" xlink:href="#DejaVuSans-38"/>
      <use x="861.083984" xlink:href="#DejaVuSans-35"/>
      <use x="924.707031" xlink:href="#DejaVuSans-34"/>
      <use x="988.330078" xlink:href="#DejaVuSans-39"/>
      <use x="1051.953125" xlink:href="#DejaVuSans-29"/>
     </g>
    </g>
   </g>
  </g>
 </g>
 <defs>
  <clipPath id="paf8cacc2cd">
   <rect height="266.112" width="357.12" x="57.6" y="41.472"/>
  </clipPath>
 </defs>
</svg>
